<?xml version="1.0" standalone="no"?>
<!DOCTYPE svg PUBLIC "-//W3C//DTD SVG 1.1//EN" "http://www.w3.org/Graphics/SVG/1.1/DTD/svg11.dtd" >
<svg xmlns="http://www.w3.org/2000/svg">
<metadata>Generated by IcoMoon</metadata>
<defs>
<font id="TripAdvisor" horiz-adv-x="1024">
<font-face units-per-em="1024" ascent="819" descent="-205" />
<missing-glyph horiz-adv-x="1024" />
<glyph unicode="&#x20;" horiz-adv-x="0" d="" />
<glyph unicode="&#xe000;" glyph-name="hotels" d="M878 314q61-49 61-126v-203h-82v81h-690v-81h-82v203q0 78 61 126v341h732v-341zM797 574h-570v-118q55 37 122 37 101 0 163-75 62 75 163 75 68 0 122-38v119zM786 350q-14 27-44 44t-67 17-66.5-16.5-44.5-43.5h212q2 0 5-0.5t5-0.5zM460 351q-15 27-44.5 43.5t-66.5 16.5-67-17-44-44q2 0 5.5 0.5t4.5 0.5h212zM167 148h690v40q0 34-23.5 57.5t-57.5 23.5h-528q-34 0-57.5-23.5t-23.5-57.5v-40z" />
<glyph unicode="&#xe001;" glyph-name="restaurants" d="M632 218l242-242-57-57-242 242-116-116-71 70-197-197-57 57 197 197-199 199q-47 47-47 114 0 66 47 113l59 60 314-313 15 15q-26 40-26 92 0 72 51 123l147 147 57-57-147-147q-28-27-28-66 0-17 6-32l210 210 57-57-216-215q18-15 32-19 4-2 10-2 13 0 27 14l182 182 57-57-182-182q-38-38-83-38-14 0-36 6-30 10-64 39l-12-13zM459 158l59 60-326 326-3-2q-23-25-23-58t23-56z" />
<glyph unicode="&#xe002;" glyph-name="attractions" d="M469 427v85h86v-85h-86zM469 278v85h86v-85h-86zM469 128v85h86v-85h-86zM853 554h-682v-62q48-24 77-70.5t29-101.5q0-56-29-102t-77-70v-62h682v62q-48 24-77 70t-29 102q0 55 29 101.5t77 70.5v62zM939 640v-214q-44 0-75.5-31t-31.5-75 31.5-75.5 75.5-31.5v-213h-854v213q44 0 75.5 31.5t31.5 75.5-31.5 75-75.5 31v214h854z" />
<glyph unicode="&#xe003;" glyph-name="vacation_rentals" d="M512 747l423-282v-572h-846v572zM850-22v442l-338 225-338-225v-442h676zM386 379q41 0 73-24t45-61h261v-84h-84v-85h-85v85h-92q-13-37-45-61t-73-24q-52 0-89.5 37t-37.5 90 37.5 90 89.5 37zM386 210q17 0 29.5 12t12.5 30q0 17-12.5 29.5t-29.5 12.5q-18 0-30.5-12.5t-12.5-29.5q0-18 12.5-30t30.5-12z" />
<glyph unicode="&#xe004;" glyph-name="flights" d="M909 717q29-29 29-77 0-71-58-129l-88-89 58-352-147-147-132 279-44-44 29-147-118-118-352 353 117 118 147-29 44 43-279 133 147 147 353-59 88 88q60 60 130 60 46 0 76-30zM821 570q34 34 34 70 0 13-5 18-5 6-17 6-35 0-71-35l-119-119-352 59-34-34 173-81 106-51-159-159-43 9-103 21-28-28 235-235 28 27-21 104-8 43 31 32 44 43 83 84 133-279 33 33-52 311-7 42 31 30z" />
<glyph unicode="&#xe005;" glyph-name="guides" d="M917 678q22-8 22-26v-632q0-9-8-17t-18-8h-8q-64 14-124 14-138 0-256-65-13-7-26 0-122 67-255 67-65 0-125-16h-8q-10 0-18 8t-8 17v632q0 23 22 30 89 17 140 17 4 0 12.5 0.5t13.5 0.5q127 0 222-57 12-6 26 0 107 57 229 57 4 0 13-0.5t14-0.5q67 0 140-21zM853 93v516q-13 0-38 2.5t-38 2.5h-23q-95 0-187-43-25-13-53-13t-53 13q-92 43-191 43h-23q-13 0-38.5-2.5t-37.5-2.5v-516q39 6 79 6 134 0 262-61 124 59 268 59 41 0 73-4z" />
<glyph unicode="&#xe006;" glyph-name="forums" d="M85-75v619h684l-1-491h-453l-139-128h-91zM171 459v-423l111 102h400l1 321h-512zM299 715h640v-449h-86v364h-554v85z" />
<glyph unicode="&#xe007;" glyph-name="cruises" d="M782-21h114v-86h-768v86h103l-101 341 126 65v277h213v42q0 18 12.5 30.5t30.5 12.5q17 0 30-12.5t13-30.5v-42h213v-282l114-61zM341 577v-148l172 88 170-91v151h-342zM232 276l88-297h373l88 298-226 121v-334h-86v335z" />
<glyph unicode="&#xe008;" glyph-name="rental_cars" d="M384 181v86h256v-86h-256zM896 502q18 0 30.5-12.5t12.5-30.5-12.5-30.5-30.5-12.5h-22v-469h-85v85h-554v-85h-86v469h-21q-18 0-30.5 12.5t-12.5 30.5 12.5 30.5 30.5 12.5h53l84 191h495l82-191h54zM321 608l-83-191h548l-82 191h-383zM235 118h554v214h-554v-214z" />
<glyph unicode="&#xe009;" glyph-name="ta_ollie" d="M223 277q0 31 22 53t54 22q31 0 53-21.5t22-53.5-22-54-53-22-53.5 22-22.5 54zM650 277q0 32 22 53.5t53 21.5q32 0 54-22t22-53q0-32-22.5-54t-53.5-22-53 22-22 54zM939 510l-70-76q69-63 69-157 0-88-62-150.5t-151-62.5q-83 0-145 56l-68-74-68 74q-62-56-145-56-89 0-151 62.5t-62 150.5q0 94 69 157l-70 76h155q123 84 272 84t272-84h155zM299 132q59 0 101.5 42.5t42.5 102.5q0 59-42.5 101.5t-101.5 42.5q-60 0-102.5-42.5t-42.5-101.5q0-60 42.5-102.5t102.5-42.5zM512 281q0 70 45 127t115 84q-74 32-160 32t-160-32q70-27 115-84t45-127zM869 277q0 59-42 101.5t-102 42.5q-59 0-101.5-42.5t-42.5-101.5q0-60 42.5-102.5t101.5-42.5q60 0 102 42.5t42 102.5z" />
<glyph unicode="&#xe00a;" glyph-name="bubble_rating_bg" d="M939 320q0-177-125-302t-302-125-302 125-125 302 125 302 302 125 302-125 125-302z" />
<glyph unicode="&#xe00b;" glyph-name="bubble_rating_full" d="M514 64h-4q-106 0-181 75t-75 181 75 181 181 75h4q106 0 181-75t75-181-75-181-181-75zM1019 389q5-38 5-69 0-212-150-362t-362-150q-26 0-52 3-195 20-327.5 165.5t-132.5 343.5q0 212 150 362t362 150q193 0 337-127t170-316zM102 320q0-104 49-193.5t132-145.5q103-71 229-71 170 0 290 120.5t120 289.5q0 104-49 193.5t-132 145.5q-103 71-229 71-170 0-290-120.5t-120-289.5z" />
<glyph unicode="&#xe00c;" glyph-name="bubble_rating_half" d="M512 832q212 0 362-150t150-362-150-362-362-150-362 150-150 362 150 362 362 150zM512-90q170 0 290 120.5t120 289.5-120 289.5-290 120.5-290-120.5-120-289.5 120-289.5 290-120.5zM510 576v-512q-106 0-181 75t-75 181 75 181 181 75z" />
<glyph unicode="&#xe00d;" glyph-name="bubble_rating_empty" d="M512 832q212 0 362-150t150-362-150-362-362-150-362 150-150 362 150 362 362 150zM512-90q170 0 290 120.5t120 289.5-120 289.5-290 120.5-290-120.5-120-289.5 120-289.5 290-120.5z" />
<glyph unicode="&#xe00e;" glyph-name="pencil_paper" d="M788-19v351h87v-439h-789v790h439v-88h-352l1-614h614zM880 725q58-39 58-109 0-55-38-93v-1l-356-356-222-50h-2q-5 0-8.5 4t-2.5 9l49 224 352 352q42 42 99 42 39 0 71-22zM838 585q13 13 13 31 0 23-21 37-9 6-21 6-21 0-37-16l-334-334-18-81 80 18 276 276z" />
<glyph unicode="&#xe00f;" glyph-name="pencil" d="M912 661q20-32 25-74 1-6 1-17 0-30-11-61-13-38-42-66l-481-482-300-68h-3q-2 0-6 2t-5 4q-3 3-3 6-1 2-1 6l66 303 477 477q56 54 134 56h1q51 0 94-29 35-24 54-57zM816 550q4 12 3 25-2 15-9 25-8 13-19 20-13 8-28 8-29 0-50-21l-451-453-24-109 106 25 458 458q10 10 14 22z" />
<glyph unicode="&#xe010;" glyph-name="camera" d="M917 597q22 0 22-21v-597q0-22-22-22h-810q-22 0-22 22v597q0 21 22 21h140q3 0 9 2.5t9 2.5l72 76q2 0 6.5 2.5t6.5 2.5h324q3 0 8-3t5-6l72-72q3 0 9-2.5t9-2.5h140zM853 43v469h-123l-86 85h-269l-85-85h-119v-469h682zM512 486q71 0 121-50t50-120q0-71-50.5-121t-120.5-50-120.5 50-50.5 121q0 70 50 120t121 50zM512 230q35 0 60 25.5t25 60.5-25 60-60 25-60-25-25-60 25-60.5 60-25.5z" />
<glyph unicode="&#xe011;" glyph-name="heart" d="M512-52q-288 249-362 341-65 80-65 173 0 97 69 161 72 69 175 69t175-69l7-7 7 7q74 69 175 69 102 0 176-69 70-67 70-161 0-92-67-174-33-40-123-125t-163-150zM329 607q-68 0-116-45-43-42-43-98 0-65 46-121 60-73 296-282 238 213 294 282 47 57 47 119 0 57-43 99-48 46-117 46-68 0-116-46l-66-62-66 63q-48 45-116 45z" />
<glyph unicode="&#xe012;" glyph-name="heart_fill" d="M512-52q-288 249-362 341-65 80-65 173 0 97 69 161 72 69 175 69t175-69l7-7 7 7q74 69 175 69 102 0 176-69 70-67 70-161 0-92-67-174-33-40-123-125t-163-150z" />
<glyph unicode="&#xe013;" glyph-name="friend" d="M514 367q-79 0-134.5 55.5t-55.5 134.5 55.5 134.5 134.5 55.5q78 0 133.5-55.5t55.5-134.5-55.5-134.5-133.5-55.5zM514 652q-40 0-67.5-28t-27.5-67 27.5-67 67.5-28q39 0 66.5 28t27.5 67-27.5 67-66.5 28zM513 320q114 0 212.5-51.5t165.5-139.5v-236h-758v234q66 90 165.5 141.5t214.5 51.5zM796-12v108q-54 62-127.5 95.5t-155.5 33.5q-83 0-157-34t-128-97v-106h568z" />
<glyph unicode="&#xe014;" glyph-name="friends" d="M341 427q-57 0-97.5 40.5t-40.5 97.5q0 58 40.5 98.5t97.5 40.5q58 0 98.5-40.5t40.5-98.5q0-57-40.5-97.5t-98.5-40.5zM341 619q-22 0-37.5-16t-15.5-38 15.5-37.5 37.5-15.5 38 15.5 16 37.5-15.5 38-38.5 16zM683 341q-58 0-98.5 41t-40.5 98 40.5 98 98.5 41q57 0 98-40.5t41-98.5q0-57-41-98t-98-41zM683 533q-22 0-37.5-15.5t-15.5-37.5 15.5-37.5 37.5-15.5 37.5 15.5 15.5 37.5-15.5 37.5-37.5 15.5zM930 174l9-11v-227h-854v314l9 11q44 59 108.5 91t139.5 32q142 0 233-105 52 20 108 20 73 0 138-33t109-92zM171 21h256v141l8 11q23 31 63 63-65 63-156 63-107 0-171-78v-200zM853 21v113q-68 79-170 79-104 0-171-80v-112h341z" />
<glyph unicode="&#xe015;" glyph-name="calendar" d="M287 72v270h271v-270h-271zM377 253v-91h91v91h-91zM736 679h180v-786h-808v786h180v23q0 19 13 32t32 13q18 0 31-13t13-32v-23h91v23q0 19 13 32t32 13 32-13 13-32v-23h89v23q0 19 13 32t32 13q18 0 31-13t13-32v-23zM827-17v606h-91v-67h-90v67h-88l-1-67h-89v67h-91v-67h-90v67h-90v-606h630z" />
<glyph unicode="&#xe016;" glyph-name="clock" d="M512 747q177 0 302-125t125-302-125-302-302-125-302 125-125 302 125 302 302 125zM512-21q142 0 241.5 99.5t99.5 241.5-99.5 241.5-241.5 99.5-241.5-99.5-99.5-241.5 99.5-241.5 241.5-99.5zM555 554v-217l136-135-60-61-162 160 1 253h85z" />
<glyph unicode="&#xe017;" glyph-name="globe_americas" d="M512 747q176 0 301.5-125.5t125.5-301.5-125.5-301.5-301.5-125.5-301.5 125.5-125.5 301.5 125.5 301.5 301.5 125.5zM512-21q30 0 43 4-5 0-5 8v64q0 13-4 18l-72 72q0 2-2.5 8.5t-2.5 8.5v64q0 9-8 17l-111 73q-9 9-9 17v64l-4 13-72 72q-5 4-5 21l13 60q-102-96-102-243 0-141 100-241t241-100zM742 68q107 92 107 238v14q0 117-68 206.5t-175 122.5v-9q0-13-4-17l-90-90v-42l-43-43-42-43v-42l42-43h43l43-43h115q13 0 17-4l81-81v-43z" />
<glyph unicode="&#xe018;" glyph-name="globe_world" d="M512 747q176 0 301.5-125.5t125.5-301.5-125.5-301.5-301.5-125.5-301.5 125.5-125.5 301.5 125.5 301.5 301.5 125.5zM175 277q10-89 63.5-161t136.5-107q-59 132-59 268h-141zM316 363q6 135 59 268-83-35-136.5-107t-63.5-161h141zM512-21q35 0 70 85.5t41 212.5h-222q6-127 41-212.5t70-85.5zM401 363h222q-6 127-41 212.5t-70 85.5-70-85.5-41-212.5zM849 363q-10 90-64.5 162t-140.5 106q60-131 60-268h145zM649 9q82 34 136.5 106t67.5 162h-145q-6-135-59-268z" />
<glyph unicode="&#xe019;" glyph-name="map_pin" d="M512 747q136 0 233-97t97-233q0-55-22.5-117t-50.5-108.5-77-105-75.5-86.5-72.5-74l-32-33-32 34q-45 44-72.5 73t-75.5 87-76.5 105-51 108.5-22.5 116.5q0 136 97 233t233 97zM512 15q244 247 244 402 0 101-71.5 172.5t-172.5 71.5-172.5-71.5-71.5-172.5q0-51 23-107.5t64.5-112.5 76-96 80.5-86zM512 577q62 0 105.5-44t43.5-106-43.5-105.5-105.5-43.5-105.5 43.5-43.5 105.5 43.5 106 105.5 44zM512 363q26 0 45 19t19 45q0 27-19 45.5t-45 18.5-45-18.5-19-45.5q0-26 19-45t45-19z" />
<glyph unicode="&#xe01a;" glyph-name="map_pin_fill" d="M512 747q136 0 233-97t97-233q0-55-22.5-117t-50.5-108.5-77-105-75.5-86.5-72.5-74l-32-33-32 34q-45 44-72.5 73t-75.5 87-76.5 105-51 108.5-22.5 116.5q0 136 97 233t233 97zM512 278q62 0 105.5 43.5t43.5 105.5-43.5 106-105.5 44-105.5-44-43.5-106 43.5-105.5 105.5-43.5z" />
<glyph unicode="&#xe01b;" glyph-name="nearby" d="M928 746q5 0 8-4t2-10l-272-831q-3-7-10-7-8 0-11 7l-142 410-410 142q-7 3-7 10.5t7 10.5l832 272h3zM654 141l156 476-477-155 238-83z" />
<glyph unicode="&#xe01c;" glyph-name="special_offer_45deg" d="M866 675l30-303q0-13-4-17l-431-431q-6-6-15-6t-15 6l-333 333q-6 6-6 15t6 15l431 431q4 4 17 4l299-25q21-8 21-22zM444 31l362 363-21 221-222 22-362-363zM683 551q16 0 29-13t13-29q0-18-12-30-13-13-30-13-19 0-31 11.5t-12 31.5q0 17 13 30 12 12 30 12z" />
<glyph unicode="&#xe01d;" glyph-name="special_offer" d="M934 333q7-13 0-26l-196-234q-7-9-17-9h-614q-10 0-16 6t-6 15v470q0 9 6 15t16 6h614q10 0 17-9zM691 149l145 171-145 171h-520v-342h520zM649 350q13 13 34 13 19 0 25-13 13-13 13-30t-13-30-30-13q-16 0-29 13t-13 30 13 30z" />
<glyph unicode="&#xe01e;" glyph-name="laptop" d="M917 64q10 0 16-6t6-15v-43q0-21-22-21h-810q-22 0-22 21v43q0 9 6 15t16 6h810zM192 107q-21 0-21 21v512q0 21 21 21h640q21 0 21-21v-512q0-21-21-21h-640zM256 576v-384h512v384h-512z" />
<glyph unicode="&#xe01f;" glyph-name="mobile_phone" d="M747 704q9 0 15-6t6-15v-726q0-9-6-15t-15-6h-470q-9 0-15 6t-6 15v726q0 9 6 15t15 6h470zM683 64v512h-342v-512h342z" />
<glyph unicode="&#xe020;" glyph-name="neighborhoods" d="M533 747q9 0 15.5-8t6.5-18v-802q0-10-6.5-18t-15.5-8h-426q-9 0-15.5 7.5t-6.5 14.5v806q0 10 6.5 18t15.5 8h426zM469-21v682h-298v-682h298zM213 64v85h86v-85h-86zM213 235v85h86v-85h-86zM213 405v86h86v-86h-86zM341 64v85h86v-85h-86zM341 235v85h86v-85h-86zM341 405v86h86v-86h-86zM917 491q22 0 22-22v-554q0-22-22-22h-298q-22 0-22 22v554q0 22 22 22h298zM853-21v426h-170v-426h170zM725 64v85h86v-85h-86zM725 235v85h86v-85h-86z" />
<glyph unicode="&#xe021;" glyph-name="neighborhoods_fill" d="M533 747q9 0 15.5-8t6.5-18v-802q0-10-6.5-18t-15.5-8h-426q-9 0-15.5 7.5t-6.5 14.5v806q0 10 6.5 18t15.5 8h426zM299 64v85h-86v-85h86zM299 235v85h-86v-85h86zM299 405v86h-86v-86h86zM427 64v85h-86v-85h86zM427 235v85h-86v-85h86zM427 405v86h-86v-86h86zM917 491q22 0 22-22v-554q0-22-22-22h-298q-22 0-22 22v554q0 22 22 22h298zM811 64v85h-86v-85h86zM811 235v85h-86v-85h86z" />
<glyph unicode="&#xe022;" glyph-name="email" d="M85 640h854v-640h-854v640zM850 555h-676l337-237zM853 85v368l-342-239-340 239v-368h682z" />
<glyph unicode="&#xe023;" glyph-name="star" d="M934 401l-162-200q-4-5-4-18l26-260q0-13-8.5-21.5t-21.5-8.5q-3 0-7 2.5t-6 2.5l-222 93q-4 5-13 5-2 0-6-2.5t-7-2.5l-221-93q-5-5-13-5-13 0-21.5 8.5t-8.5 21.5l17 260q0 2-2 9.5t-2 12.5l-158 196q-7 7-7 18 0 21 20 25l234 59q9 5 17 13l128 218q15 13 26 13t26-13l128-218q6-13 17-13l239-59q19-5 19-25 0-10-7-18zM700 260l94 120-137 34q-42 11-72 55l-73 120-73-120q-30-44-72-55l-137-34 94-120q26-38 26-85l-9-149 124 51q26 8 47 8 30 0 47-8l124-51-9 149q0 2-0.5 6t-0.5 6q0 33 27 73z" />
<glyph unicode="&#xe024;" glyph-name="star_fill" d="M934 401l-162-200q-4-5-4-18l26-260q0-13-8.5-21.5t-21.5-8.5q-3 0-7 2.5t-6 2.5l-222 93q-4 5-13 5-2 0-6-2.5t-7-2.5l-221-93q-5-5-13-5-13 0-21.5 8.5t-8.5 21.5l17 260q0 2-2 9.5t-2 12.5l-158 196q-7 7-7 18 0 21 20 25l234 59q9 5 17 13l128 218q15 13 26 13t26-13l128-218q6-13 17-13l239-59q19-5 19-25 0-10-7-18z" />
<glyph unicode="&#xe025;" glyph-name="flag_fill" d="M194 725q9 0 15-7.5t6-17.5v-764q0-21-21-21h-43q-21 0-21 21v764q0 10 6 17.5t15 7.5h43zM876 725q18 0 18-15 0-4-1-6v-384q0-21-21-21h-593q-21 0-21 21v384q0 21 21 21h597z" />
<glyph unicode="&#xe026;" glyph-name="phone" d="M749-106q-35 0-75.5 6.5t-102.5 26-134.5 65-139.5 112.5q-68 69-114.5 143.5t-65.5 138-25.5 103-6.5 73.5q0 5 0.5 10t0.5 8v3l2 21 192 142 232-233-77-116q50-108 157-156l135 58 212-211-143-190-20-3q-9-1-27-1zM181 554q0-28 6-61.5t22.5-86 57-115 98.5-121.5 120-98.5 114.5-56 85.5-22 61-5.5l68 89-108 108-108-46-17 6q-84 31-147.5 94.5t-95.5 147.5l-7 22 60 92-120 120z" />
<glyph unicode="&#xe027;" glyph-name="printer" d="M917 491q22 0 22-22v-341q0-21-22-21h-128q-9 0-15-6t-6-16v-128q0-9-6-15t-15-6h-470q-9 0-15 6t-6 15v128q0 10-6 16t-15 6h-128q-22 0-22 21v341q0 22 22 22h810zM683 21v214h-342v-214h342zM277 533q-9 0-15 6t-6 16v128q0 9 6 15t15 6h470q9 0 15-6t6-15v-128q0-10-6-16t-15-6h-470z" />
<glyph unicode="&#xe028;" glyph-name="lightbulb_on" d="M619 0q8 0 14.5-7t6.5-14v-43q0-21-21-21h-214q-21 0-21 21v43q0 7 6.5 14t14.5 7h214zM512 555q89 0 151-63t62-151q0-22-13-57t-26.5-63-41.5-80l-4-4v-73q0-21-21-21h-214q-21 0-21 21v73l-4 4q-64 121-75 161-6 22-6 39 0 90 62 152t151 62zM491 640q-10 0-16 6t-6 15v43q0 7 6.5 14t15.5 7h42q9 0 15.5-7t6.5-14v-43q0-9-6-15t-16-6h-42zM917 299q9 0 15.5-7.5t6.5-14.5v-42q0-22-22-22h-42q-22 0-22 22v42q0 22 22 22h42zM849 576q7-15 0-30l-30-30q-6-6-15-6-8 0-15 6l-30 30q-6 6-6 15t6 15l30 30q7 6 15 6 9 0 15-6zM149 299q9 0 15.5-7.5t6.5-14.5v-42q0-22-22-22h-42q-22 0-22 22v42q0 7 6.5 14.5t15.5 7.5h42zM239 606l26-30q6-6 6-15t-6-15l-30-30q-7-6-15-6-9 0-15 6l-30 30q-7 15 0 30l34 30q3 6 13 6 11 0 17-6z" />
<glyph unicode="&#xe029;" glyph-name="external_link" d="M853 277h90v-358q0-12-8-19t-18-7h-806q-26 0-26 22v806q0 26 26 26h358v-86h-298v-682h682v298zM875 704q7 0 14-6.5t7-14.5v-201q0-10-7-16.5t-16-6.5-15 6l-73 73-256-256-60 59 256 256-68 69q-5 5-5 15 0 9 6.5 16t15.5 7h201z" />
<glyph unicode="&#xe02a;" glyph-name="checkmark_boxed" d="M829-6h9v421l92 92v-584q0-25-25-25h-794q-12 0-19 7.5t-7 17.5v794q0 10 6 17.5t15 7.5h585l-93-96h-420v-652h651zM312 507l152-151 386 386 89-88-475-475-240 240z" />
<glyph unicode="&#xe02b;" glyph-name="checkmark" d="M783 606l90-90-483-482-239 243 90 90 149-154z" />
<glyph unicode="&#xe02c;" glyph-name="times" d="M939 652l-332-332 332-332-95-95-332 332-332-332-95 95 332 332-332 332 95 95 332-332 332 332z" />
<glyph unicode="&#xe02d;" glyph-name="times_c" d="M210 622q127 125 302 125t302-125q125-127 125-302t-125-302q-127-125-302-125t-302 125q-125 127-125 302t125 302zM753 79q100 99 100 241t-100 241q-99 100-241 100t-241-100q-100-99-100-241t100-241q99-100 241-100t241 100zM401 491l106-106 106 106 60-60-106-106 106-106-60-60-106 106-106-106-60 60 106 106-106 106z" />
<glyph unicode="&#xe02e;" glyph-name="times_c_fill" d="M210 622q127 125 302 125t302-125q125-127 125-302t-125-302q-127-125-302-125t-302 125q-125 127-125 302t125 302zM673 431l-60 60-106-106-106 106-60-60 106-106-106-106 60-60 106 106 106-106 60 60-106 106z" />
<glyph unicode="&#xe02f;" glyph-name="plus" d="M939 363v-86h-384v-384h-86v384h-384v86h384v384h86v-384h384z" />
<glyph unicode="&#xe030;" glyph-name="plus_c" d="M512 747q177 0 302-125t125-302-125-302-302-125-302 125-125 302 125 302 302 125zM512-21q141 0 241 100t100 241-100 241-241 100-241-100-100-241 100-241 241-100zM555 519v-149h149v-86h-149v-149h-86v149h-149v86h149v149h86z" />
<glyph unicode="&#xe031;" glyph-name="plus_c_fill" d="M512 747q177 0 302-125t125-302-125-302-302-125-302 125-125 302 125 302 302 125zM704 284v86h-149v149h-86v-149h-149v-86h149v-149h86v149h149z" />
<glyph unicode="&#xe032;" glyph-name="minus" d="M939 363v-86h-854v86h854z" />
<glyph unicode="&#xe033;" glyph-name="minus_c" d="M512 747q177 0 302-125t125-302-125-302-302-125-302 125-125 302 125 302 302 125zM512-21q141 0 241 100t100 241-100 241-241 100-241-100-100-241 100-241 241-100zM320 370h384v-86h-384v86z" />
<glyph unicode="&#xe034;" glyph-name="minus_c_fill" d="M512 747q177 0 302-125t125-302-125-302-302-125-302 125-125 302 125 302 302 125zM704 284v86h-384v-86h384z" />
<glyph unicode="&#xe035;" glyph-name="menu_bars" d="M87 533v107h852v-107h-852zM85 267v106h852v-106h-852zM86 1v106h852v-106h-852z" />
<glyph unicode="&#xe036;" glyph-name="refresh" d="M512 747q176 0 301.5-125.5t125.5-301.5-125.5-301.5-301.5-125.5v98q137 0 235 98t98 235q0 138-98 235.5t-235 97.5-235-97.5-98-235.5q0-84 39.5-155t105.5-118l64 64q6 5 15 5 10 0 17-6.5t7-15.5v-183q0-22-22-22h-183q-9 0-15.5 7t-6.5 15 5 12l51 52q-79 59-125 148.5t-46 192.5q0 176 125.5 301.5t301.5 125.5z" />
<glyph unicode="&#xe037;" glyph-name="refresh_zapper" d="M192 320h209l-243-243q-73 112-73 243v8q0 173 121.5 294t296.5 125q128 0 248-73l-81-81q-74 47-162 47-131 0-223.5-94t-92.5-226zM866 563q73-112 73-243 0-129-77-239-60-89-154-138t-199-49q-129 0-236 72l81 81q74-47 162-47 131 0 223.5 94t92.5 226h-209z" />
<glyph unicode="&#xe038;" glyph-name="single_chevron_up" d="M785 124l-273 273-273-273-60 64 333 328 333-328z" />
<glyph unicode="&#xe039;" glyph-name="single_chevron_up_c" d="M512 747q176 0 301.5-125.5t125.5-301.5-125.5-301.5-301.5-125.5-301.5 125.5-125.5 301.5 125.5 301.5 301.5 125.5zM512-21q141 0 241 100t100 241-100 241-241 100-241-100-100-241 100-241 241-100zM512 474l60-64 123-120-59-60-124 120-119-120-60 60z" />
<glyph unicode="&#xe03a;" glyph-name="single_chevron_up_c_fill" d="M512 747q176 0 301.5-125.5t125.5-301.5-125.5-301.5-301.5-125.5-301.5 125.5-125.5 301.5 125.5 301.5 301.5 125.5zM636 230l55 64-119 120-60 60-179-184 60-60 119 120z" />
<glyph unicode="&#xe03b;" glyph-name="single_chevron_right" d="M316 593l59 60 333-333-333-329-59 60 273 269z" />
<glyph unicode="&#xe03c;" glyph-name="single_chevron_right_c" d="M512 747q176 0 301.5-125.5t125.5-301.5-125.5-301.5-301.5-125.5-301.5 125.5-125.5 301.5 125.5 301.5 301.5 125.5zM512-21q141 0 241 100t100 241-100 241-241 100-241-100-100-241 100-241 241-100zM486 503l120-119 60-64-60-60-120-119-59 60 119 119-119 124z" />
<glyph unicode="&#xe03d;" glyph-name="single_chevron_right_c_fill" d="M512 747q176 0 301.5-125.5t125.5-301.5-125.5-301.5-301.5-125.5-301.5 125.5-125.5 301.5 125.5 301.5 301.5 125.5zM606 260l60 64-60 60-120 119-59-59 119-124-119-119 59-60z" />
<glyph unicode="&#xe03e;" glyph-name="single_chevron_down" d="M785 516l60-59-333-333-333 333 60 59 273-269z" />
<glyph unicode="&#xe03f;" glyph-name="single_chevron_down_c" d="M512 747q176 0 301.5-125.5t125.5-301.5-125.5-301.5-301.5-125.5-301.5 125.5-125.5 301.5 125.5 301.5 301.5 125.5zM512-21q141 0 241 100t100 241-100 241-241 100-241-100-100-241 100-241 241-100zM512 294l119 120 60-60-179-179-60 60-123 119 64 60z" />
<glyph unicode="&#xe040;" glyph-name="single_chevron_down_c_fill" d="M512 747q176 0 301.5-125.5t125.5-301.5-125.5-301.5-301.5-125.5-301.5 125.5-125.5 301.5 125.5 301.5 301.5 125.5zM572 235l119 119-60 60-119-120-119 120-60-60 179-179z" />
<glyph unicode="&#xe041;" glyph-name="single_chevron_left" d="M708 593l-273-273 273-269-59-60-333 329 333 333z" />
<glyph unicode="&#xe042;" glyph-name="single_chevron_left_c" d="M512 747q176 0 301.5-125.5t125.5-301.5-125.5-301.5-301.5-125.5-301.5 125.5-125.5 301.5 125.5 301.5 301.5 125.5zM512-21q141 0 241 100t100 241-100 241-241 100-241-100-100-241 100-241 241-100zM550 503l60-59-119-120 119-123-60-60-123 119-60 64 60 60z" />
<glyph unicode="&#xe043;" glyph-name="single_chevron_left_c_fill" d="M512 747q176 0 301.5-125.5t125.5-301.5-125.5-301.5-301.5-125.5-301.5 125.5-125.5 301.5 125.5 301.5 301.5 125.5zM550 141l60 60-124 119 120 119-60 60-179-179 60-60z" />
<glyph unicode="&#xe044;" glyph-name="caret_up" d="M201 201l290 281q9 10 21 10t21-10l290-281q10-10 10-22t-10-21q-9-9-21-9h-580q-13 0-21.5 8.5t-8.5 21.5 9 22z" />
<glyph unicode="&#xe047;" glyph-name="caret_right" d="M393 631l281-290q10-9 10-21t-10-21l-281-290q-10-10-22-10t-21 10q-9 9-9 21v580q0 13 8.5 21.5t21.5 8.5 22-9z" />
<glyph unicode="&#xe04a;" glyph-name="caret_down" d="M824 441l-290-282q-10-10-21-10t-21 10l-290 282q-10 9-10 21t10 21q7 9 21 9h580q13 0 21.5-8.5t8.5-21.5q0-14-9-21z" />
<glyph unicode="&#xe04d;" glyph-name="caret_left" d="M632 8l-281 290q-10 9-10 21t10 21l281 290q10 10 22 10t21-10q9-9 9-21v-580q0-13-8.5-21.5t-21.5-8.5-22 9z" />
<glyph unicode="&#xe050;" glyph-name="exclamation_c" d="M512 747q176 0 301.5-125.5t125.5-301.5-125.5-301.5-301.5-125.5-301.5 125.5-125.5 301.5 125.5 301.5 301.5 125.5zM512-21q141 0 241 100t100 241-100 241-241 100-241-100-100-241 100-241 241-100zM469 235v341h86v-341h-86zM469 64v85h86v-85h-86z" />
<glyph unicode="&#xe051;" glyph-name="exclamation_c_fill" d="M512 747q176 0 301.5-125.5t125.5-301.5-125.5-301.5-301.5-125.5-301.5 125.5-125.5 301.5 125.5 301.5 301.5 125.5zM555 64v85h-81v-85h81zM555 235v341h-86v-341h86z" />
<glyph unicode="&#xe052;" glyph-name="information_c" d="M512 747q177 0 302-125t125-302-125-302-302-125-302 125-125 302 125 302 302 125zM512-21q142 0 241.5 99.5t99.5 241.5-99.5 241.5-241.5 99.5-241.5-99.5-99.5-241.5 99.5-241.5 241.5-99.5zM512 541h1q22-1 37-16t15-37v-1q0-22-15.5-37.5t-37.5-15.5-38 15.5-16 37.5 16 38 38 16zM469 113v283h86v-283h-86z" />
<glyph unicode="&#xe053;" glyph-name="information_c_fill" d="M512 747q177 0 302-125t125-302-125-302-302-125-302 125-125 302 125 302 302 125zM555 113v283h-86v-283h86zM565 487v1q0 22-15 37t-37 16h-1q-22 0-38-16t-16-38 16-37.5 38-15.5 37.5 15.5 15.5 37.5z" />
<glyph unicode="&#xe054;" glyph-name="question_c" d="M512 747q176 0 301.5-125.5t125.5-301.5-125.5-301.5-301.5-125.5-301.5 125.5-125.5 301.5 125.5 301.5 301.5 125.5zM512-21q141 0 241 100t100 241-100 241-241 100-241-100-100-241 100-241 241-100zM610 499q35-24 35-77 0-11-1-17 0-37-17-59-3-11-38-39l-22-13q-15-10-21-29-4-5-4-30h-73q0 35 9 64 9 18 34 38l21 17q4 2 7 5t6 7 4 5q13 19 13 34 0 20-13 39-10 17-42 17-28 0-43-22-13-20-13-42h-77q8 80 56 111 34 21 77 21 68 0 102-30zM474 128v77h81v-77h-81z" />
<glyph unicode="&#xe055;" glyph-name="question_c_fill" d="M512 747q176 0 301.5-125.5t125.5-301.5-125.5-301.5-301.5-125.5-301.5 125.5-125.5 301.5 125.5 301.5 301.5 125.5zM555 128v77h-81v-77h81zM631 354q15 19 15 42 0 4-2 18 0 53-38 85-35 30-103 30-42 0-76-21-52-38-52-103h82q0 23 12 43 15 21 43 21 31 0 43-17 12-19 12-38 0-22-12-34-7-12-17-17l-22-17q-29-22-34-39-8-26-8-64h72q0 22 4 30 5 13 22 30l21 13z" />
<glyph unicode="&#xe056;" glyph-name="search" d="M939-43l-63-63-235 235q-94-72-211-72-143 0-244 101t-101 243q0 143 101 244t244 101 244-101 101-244q0-116-72-209zM430 146q106 0 181 74.5t75 180.5-75 181-181 75-181-75-75-181 75-180.5 181-74.5z" />
<glyph unicode="&#xe057;" glyph-name="thumbs_up_fill" d="M129 407q18 0 31-13t13-31v-415h-88v415q0 18 13 31t31 13zM917 443q22-25 22-57 0-2-0.5-6t-0.5-6l-54-352q-5-32-29.5-53t-56.5-21h-538v430l244 314h101q41 0 67-32 20-25 20-55 0-12-2-18l-23-114h184q39 0 66-30zM798 35l53 351h-291l45 219h-58l-199-257v-313h450z" />
<glyph unicode="&#xe058;" glyph-name="thumbs_down_fill" d="M173 277q0-18-13-31t-31-13-31 13-13 31v415h88v-415zM938 266q0-2 0.5-6t0.5-6q0-32-22-57-27-30-66-30h-184l23-114q2-6 2-18 0-30-20-55-26-32-67-32h-101l-244 314v430h538q32 0 57-21t29-53zM851 254l-53 351h-450v-313l199-257h58l-45 219h291z" />
<glyph unicode="&#xe059;" glyph-name="certificate_of_excellence" d="M189 747h646v-854l-323 160-323-160v854zM743 42v612h-462v-612l232 113zM445 365l-87 63q-5 4-3.5 9.5t8.5 5.5h108l33 102q3 6 8 6 6 0 8-6l34-102h108q6 0 8-5.5t-3-9.5l-88-63 34-103q1-4-1.5-7t-6.5-3-5 1l-88 63-87-63q-2-1-5-1-4 0-6.5 3t-1.5 7z" />
<glyph unicode="&#xe05a;" glyph-name="green_leaders" d="M844-20q10-7 10-17 0-7-6-13l-34-34q-6-7-15-7-8 0-15 7l-77 76h-264q-115 4-194 84.5t-79 193.5v435q0 11 6.5 18.5t18.5 7.5h384q115-4 194.5-84.5t79.5-193.5v-294q0-8-9-17-10-7-19-7-8 0-15 7l-269 273-64-64 337-341z" />
<glyph unicode="&#xe05b;" glyph-name="amusement_parks" d="M922 371q16-21 16-45 0-25-16-44-20-20-44-20-15 0-29 7-13-79-60-145 47-16 47-60 0-25-19-44.5t-45-19.5q-19 0-36 12t-23 31q-39-26-60-34l30-116h-81l-26 90q-10 0-32-2t-32-2q-43 0-64 4l-26-90h-81l30 111q-27 14-55 34-15-42-60-42-26 0-45 19.5t-19 44.5q0 19 12 36t31 23q-49 71-60 146-12-6-28-6-27 0-45 18-19 21-19 45t19 45q17 20 43 20 16 0 30-7 30 94 60 136-43 15-43 60 0 28 19 46t45 18q45 0 60-43 67 48 132 60-7 11-7 27 0 26 20 46 21 19 45 19 25 0 44-19 20-16 20-43 0-16-7-30 76-11 145-60 14 47 60 47 26 0 45-19.5t19-44.5q0-1 0.5-3t0.5-3q0-14-22-33t-22-21 11.5-24.5 25.5-55.5 19-56q17 5 31 5 28 0 46-18zM512 55q30 0 43 5l-43 162-43-162q13-5 43-5zM631 85q64 32 102.5 92.5t38.5 132.5v10q0 109-77.5 187t-186.5 78-187-78-78-187q0-76 38.5-139t102.5-96l60 231v8q0 25 19 44.5t45 19.5 45-19.5 19-44.5v-8z" />
<glyph unicode="&#xe05c;" glyph-name="wifi" d="M329 224q76 76 183 76t183-76l-61-61q-50 50-122 50t-122-50zM207 346q126 126 305 126t305-126l-61-61q-103 101-244 101-143 0-244-101zM85 468q87 87 198 131.5t229 44.5 229-44.5 198-131.5l-61-62q-75 74-170 112.5t-196 38.5-196-38.5-170-112.5zM446 61q0 28 19.5 47t46.5 19 46.5-19 19.5-47q0-27-19.5-46t-46.5-19-46.5 19-19.5 46z" />
<glyph unicode="&#xe05d;" glyph-name="parking" d="M356 532h163q67 0 107.5-35.5t40.5-100.5-40.5-100.5-107.5-35.5h-72v-155h-91v427zM515 339q62 0 62 57t-62 57h-68v-114h68zM796-107h-568q-59 0-101 42t-42 101v568q0 59 42 101t101 42h568q59 0 101-42t42-101v-568q0-59-42-101t-101-42zM228 652q-20 0-34-14.5t-14-33.5v-568q0-20 14-34t34-14h568q20 0 34 14t14 34v568q0 19-14 33.5t-34 14.5h-568z" />
<glyph unicode="&#xe05e;" glyph-name="coffee_tea_cafe" d="M128-43v86h725v-86h-725zM849 636q89-81 89-177 0-75-52.5-128.5t-126.5-53.5q-4 0-12.5 2.5t-12.5 2.5q-2-6-8-24.5t-10-30.5-15-31.5-23.5-33-34-29.5-47.5-25.5-64-16-84-6.5q-61 0-110 12t-82 30.5-57.5 46.5-37.5 55.5-21 62-10 61-2 57.5v209q0 9 6 15t15 6h683q5 0 10.5-2t6.5-2zM853 465v4q0 35-24.5 58t-60.5 23v-170h4q35 0 58 24.5t23 60.5z" />
<glyph unicode="&#xe05f;" glyph-name="notification_bell" d="M513-109q-54 0-91 37t-37 91h256q0-54-36.5-91t-91.5-37zM842 151q14-7 8-17v-51q1-2 1-6 0-15-18-15h-644q-17 0-17 21v51q0 9 13 22l68 34h4q0 32 0.5 72t1.5 74.5 1.5 64 1 47.5 0.5 19q-1 3-1 9 0 146 167 179v8q0 35 25 60.5t60 25.5 60.5-25.5 25.5-60.5v-8q77-17 123.5-63.5t46.5-120.5v-281h5zM684 147v324q0 32-17 54t-45.5 31.5-54 13.5-54.5 4q-3 0-9.5 0.5t-9.5 0.5q-70 0-126-40-22-22-22-55 0-8 1-13v-8q0-2-2-124t-2-188h341z" />
<glyph unicode="&#xe060;" glyph-name="tickets" d="M832 747q7 0 14-6.5t7-15.5v-810q0-22-21-22h-171q-6 0-13.5 5.5t-7.5 11.5q-7 48-43.5 79.5t-84.5 31.5-84.5-31.5-43.5-79.5q0-17-21-17h-171q-21 0-21 22v810q0 22 21 22h171q6 0 13.5-5.5t7.5-11.5q7-48 43.5-79.5t84.5-31.5q47 0 82.5 31t45.5 80q0 6 7.5 11.5t13.5 5.5h171zM678 350q5 3 3 10t-11 7l-98 26-56 89q-3 7-8.5 7t-8.5-7l-55-89-98-26q-4 0-6-7t1-10l69-81-9-107q0-6 5.5-11t11.5-2l94 39 94-39q17 0 17 13l-9 107z" />
<glyph unicode="&#xe061;" glyph-name="arrow_left_prohibited" d="M273 218q-5-3-12-3-11 0-18 7l-128 128q-6 6-6 15 0 8 6 15l128 128q9 4 13 4 21 0 21-21v-90h214l-86-85h-128v-81q0-13-4-17zM917 401v-85h-303l-328-329-60 60 606 606 60-60-192-192h217z" />
<glyph unicode="&#xe062;" glyph-name="empty_cart" d="M598 20q0 35 25.5 60.5t60.5 25.5 60-25.5 25-60.5-25-60-60-25-60.5 25-25.5 60zM257 20q0 35 25 60.5t60 25.5 60.5-25.5 25.5-60.5-25.5-60-60.5-25-60 25-25 60zM917 401q8 0 13.5-5.5t5.5-13.5q0-1-2-7l-42-251q0-6-7.5-11.5t-14.5-5.5h-678q-21 0-21 21l-43 491h-21q-22 0-22 21v43q0 9 6 15t16 6h85q21 0 21-21v-17l39-453q0-21 21-21h525q9 0 15 5.5t6 11.5l30 184q6 17 26 17z" />
<glyph unicode="&#xe063;" glyph-name="activities" d="M609 636q0 30 21 51t51 21 51.5-21 21.5-51-21.5-51.5-51.5-21.5-51 21.5-21 51.5zM925 354q14-5 14-20 0-4-2-10l-21-38q-8-13-21-13-8 0-13 4l-107 60-21 26v-73q4-4 4-8l149-295q2-3 2-9 0-15-14-21l-43-21q-4-4-11-4-15 0-19 13l-124 247h-4l-34-136q-2-2-4-6.5t-4-6.5l-111-103q-11-6-19-6t-16 6l-34 34q-6 11-6 19 0 9 6 16l103 98q0 2 2 6t2 7l30 128v145l-38-39q-9-7-9-17v-89q-7-22-26-22h-47q-25 0-25 22v128q0 7 8 17l128 102q31 26 71 26 42 0 74-26l9-4 72-86q3 0 5-2t4-2zM174 597q0 18 12.5 30.5t29.5 12.5q18 0 30.5-12.5t12.5-30.5q0-17-12.5-29.5t-30.5-12.5q-17 0-29.5 12.5t-12.5 29.5zM319 465l55-30q9-9 9-34l-13-25q-9-11-21-5l-69 39-13 17v-51l94-184q0-13-8-17l-26-13q-17 0-21 9l-77 153-21-85-5-8-72-64q-15-8-21 0l-22 21q-7 14 0 21l60 60q4 4 4 8l22 81v94l-26-21q-4 0-4-9v-55q0-13-13-13h-30q-4 0-8.5 3.5t-4.5 9.5v81q0 4 5 9l76 64q5 4 13 4h73q2 0 6-2t6-2l47-52z" />
<glyph unicode="&#xe064;" glyph-name="pool" d="M597 617q0 44 31.5 75.5t75.5 31.5 75.5-31.5 31.5-75.5-31.5-75-75.5-31-75.5 31-31.5 75zM252 617q-16 0-27.5 13.5t-11.5 29.5v21q0 19 13 31t30 12h4q113 0 192-85l278-273q-9-9-17-9-25-17-52-17-29 0-51 17-45 26-80 26h-14q-54 0-94-26-23-17-51-17-29 0-51 17-2 1-14 8t-20 9l111 107q13 13 13 30 0 16-13 29l-13 13q-50 58-132 64zM516 84q34 0 95-32t91-32h6q34 2 89 33t92 31h7v-107q-35-4-85-29.5t-81-29.5q-14-2-20-2-38 0-99.5 30.5t-92.5 30.5h-6q-29 0-84-27.5t-82-31.5q-16-2-22-2-41 0-103.5 30.5t-92.5 30.5v107q35 0 95.5-32t94.5-32h6q34 0 95 32t97 32zM708 233q34 2 89 33t92 31h7v-106q-34-5-84-30.5t-82-29.5q-14-2-20-2-38 0-99.5 31t-92.5 31h-6q-29 0-83.5-28t-82.5-32q-16-2-22-2-41 0-103.5 31t-92.5 31v106q35 0 95.5-32t94.5-32h6q34 0 95 32t97 32q34 0 95-32t91-32h6z" />
<glyph unicode="&#xe065;" glyph-name="pet_friendly" d="M128 443q0 35 25 60.5t60 25.5 60.5-25.5 25.5-60.5-25.5-60-60.5-25-60 25-25 60zM299 597q0 35 25 60t60 25 60-25 25-60-25-60.5-60-25.5-60 25.5-25 60.5zM555 597q0 35 25 60t60 25 60-25 25-60-25-60.5-60-25.5-60 25.5-25 60.5zM725 443q0 35 25.5 60.5t60.5 25.5 60-25.5 25-60.5-25-60-60-25-60.5 25-25.5 60zM508 426q59 0 120-43t103.5-102.5 69.5-119.5 27-96v-10q-10-35-34.5-59.5t-59.5-34.5q-22-3-226-3t-226 3q-35 10-59.5 34.5t-34.5 59.5q-1 5-1 17 0 62 46 144.5t123 146 152 63.5z" />
<glyph unicode="&#xe066;" glyph-name="smoking" d="M851 226v128h85v-128h-85zM85 333q0 9 6 15t16 6h659v-128h-659q-10 0-16 6t-6 15v86zM745 694q-6-15-6-35 0-41 27-71 41-48 41-118l-3-31h-64q6 22 6 46 0 12-1 18-2 14-25 45.5t-26 39.5q-15 33-15 77l2 29h64zM898 588q41-48 41-118l-3-31h-64q2 17 2 36t-2 28q-2 14-25 46t-26 39q-14 30-14 77l2 29h63q-4-13-4-33 0-44 30-73z" />
<glyph unicode="&#xe067;" glyph-name="smoking_prohibited" d="M851 226v128h85v-128h-85zM745 694q-6-18-6-35 0-40 27-67 41-46 41-116 0-17-3-33h-64q6 30 6 42t-1 18q-3 14-25.5 45.5t-25.5 39.5q-15 37-15 78 0 10 2 28h64zM872 439q3 17 3 32 0 16-3 32-2 14-25 46t-26 39q-14 40-14 78 0 19 1 28h69q-6-18-6-35 0-39 27-71 41-47 41-116 0-17-3-33h-64zM85 550l60 59 604-604-60-59-280 280h-302q-22 0-22 22v85q0 9 6 15t16 6h174zM647 226l-128 128h247v-128h-119z" />
<glyph unicode="&#xe068;" glyph-name="bar" d="M939 619l-384-384v-214h168v-85h-427v85h173v218l-384 384v81h854v-85zM816 619h-606l302-304 114 114h-8q-26 0-45 19-18 20-18 44 0 27 19 45.5t45 18.5h9q24-4 39.5-22t15.5-41v-9z" />
<glyph unicode="&#xe069;" glyph-name="sun" d="M299 316q0 89 62.5 151t150.5 62 150.5-62 62.5-151-62.5-151.5-150.5-62.5-150.5 62.5-62.5 151.5zM256 516l-60 60q-6 6-6 15t6 15l30 30q6 6 15 6t15-6l60-60q6-6 6-15t-6-15l-30-30q-6-6-15-6t-15 6zM772 119l60-59q6-7 6-15 0-9-6-15l-30-30q-6-6-15-6-7 0-15 6l-59 60q-7 6-7 15 0 8 7 15l29 29q7 7 15 7 9 0 15-7zM742 512l-29 30q-7 6-7 15 0 8 7 15l59 59q7 7 15 7 9 0 15-7l30-29q6-7 6-15 0-9-6-15l-60-60q-6-6-15-6-7 0-15 6zM286 119l30-29q6-7 6-15 0-9-6-15l-60-60q-6-6-15-6t-15 6l-30 30q-6 6-6 15 0 8 6 15l60 59q6 7 15 7t15-7zM213 299q0-22-21-22h-85q-22 0-22 22v42q0 22 22 22h85q21 0 21-22v-42zM917 363q22 0 22-22v-42q0-22-22-22h-85q-21 0-21 22v42q0 22 21 22h85zM533 21q22 0 22-21v-85q0-22-22-22h-42q-22 0-22 22v85q0 21 22 21h42zM491 619q-22 0-22 21v85q0 22 22 22h42q22 0 22-22v-85q0-21-22-21h-42z" />
<glyph unicode="&#xe06a;" glyph-name="guides_fill" d="M917 678q22-8 22-26v-632q0-9-8-17t-18-8h-8q-64 14-124 14-138 0-256-65-13-7-26 0-122 67-255 67-65 0-125-16h-8q-10 0-18 8t-8 17v632q0 23 22 30 89 17 140 17 4 0 12.5 0.5t13.5 0.5q127 0 222-57 12-6 26 0 105 57 229 57 4 0 13-0.5t14-0.5q67 0 140-21z" />
<glyph unicode="&#xe06b;" glyph-name="comments" d="M817 628h-614v-427h290v-141l170 141h154v427zM151 704h717q10 0 18.5-7.5t11.5-17.5v-529q0-10-8-18t-17-8h-154q-9 0-13-4-19-12-81-56.5t-114-83.5l-52-39q-5-5-13-5h-7q-9 0-16 6.5t-7 15.5v141q0 9-8 17t-18 8h-239q-9 0-17 8t-8 18v529q0 10 8 17.5t17 7.5z" />
<glyph unicode="&#xe06c;" glyph-name="comments_fill" d="M151 704h717q10 0 18.5-7.5t11.5-17.5v-529q0-10-8-18t-17-8h-154q-9 0-13-4-19-12-81-56.5t-114-83.5l-52-39q-5-5-13-5h-7q-9 0-16 6.5t-7 15.5v141q0 9-8 17t-18 8h-239q-9 0-17 8t-8 18v529q0 10 8 17.5t17 7.5z" />
<glyph unicode="&#xe06d;" glyph-name="email_fill" d="M85 640h854v-640h-854v640zM853 453v102h-3l-339-235-337 235h-3v-102l341-239z" />
<glyph unicode="&#xe06e;" glyph-name="adult" d="M422 659q0 35 26.5 60.5t63.5 25.5 63.5-25.5 26.5-60.5-26.5-60-63.5-25-63.5 25-26.5 60zM725 284q1-3 1-7 0-17-13-23l-43-13q-17 0-21 9-2 0-12 32t-19 64l-8 32-4-188 21-269q0-21-17-21l-47-5q-10 0-17.5 6.5t-7.5 15.5l-22 239h-4q-21-243-26-248-6-13-21-13l-47 5q-6 0-11.5 6t-5.5 15l21 273-4 196-34-128q0-7-5.5-12.5t-13.5-5.5q-1 0-3 0.5t-4 0.5l-42 13q-18 7-18 19 0 4 1 7 55 183 59 192 2 2 3.5 4t2.5 3 3 1q10 11 30 17 46 30 119 30 75 0 115-30 20-6 30-17 9 0 9-8z" />
<glyph unicode="&#xe06f;" glyph-name="child" d="M512 469q-45 0-76 31t-31 76q4 45 35.5 76t75.5 31q45 0 76-31t31-76q-3-45-34.5-76t-76.5-31zM738 247q5-5 5-11 0-9-9-18l-30-30q-6-7-15-7t-15 7l-47 47 30-150h-43v-106q0-22-21-22h-43q-9 0-15 6t-6 16v106h-43v-106q0-22-21-22h-43q-9 0-15 6t-6 16v102h-43l39 154-51-47q-7-7-15-7-9 0-15 7l-30 30q-7 7-7 15 0 7 7 14 115 133 119 133 10 16 22 21 41 30 89 30 70 0 111-56z" />
<glyph unicode="&#xe070;" glyph-name="present" d="M176-88v240h288v-240h-288zM819 536h77v-96h-48v-192h-288v192h-96v-192h-288v192h-48v96h77q-5 10-5 24 0 68 50 118t118 50q45 0 83.5-22.5t60.5-59.5q22 37 60.5 59.5t83.5 22.5q68 0 118-50t50-118q0-5-2.5-12t-2.5-12zM435 536q5 10 5 24 0 29-22 50.5t-50 21.5-50-21.5-22-50.5q0-19 5-24h134zM723 536q5 10 5 24 0 29-22 50.5t-50 21.5-50-21.5-22-50.5q0-14 5-24h134zM560-88v240h288v-240h-288z" />
<glyph unicode="&#xe071;" glyph-name="announcement_fill_26deg" d="M128 213l38 17q3 1 8 1 12 0 22-10l77-154q2-4 2-7 0-12-10-22l-39-17q-2-2-7-2-11 0-23 10l-76 154q-5 7-5 13 0 12 13 17zM230 251q-8 15 5 21l426 389 5 4q4 3 11 3 12 0 18-12l214-448v-4q0-19-17-26l-115-21q-7 0-12-5t-5-12q-7-58-48-103.5t-98-58.5q-24-6-50-6-52 0-97 25t-70 70q-6 13-21 13l-43-8q-15 0-21 13zM597 72q26 3 44 23t25 49l-175-34q30-41 83-41 12 0 23 3z" />
<glyph unicode="&#xe072;" glyph-name="announcement_fill" d="M169 450h42q22 0 22-21v-171q0-21-22-21h-42q-22 0-22 21v171q0 21 22 21zM275 437q0 15 17 22l555 162h4q16 0 26-22v-494q-7-19-19-19-1 0-3.5 0.5t-3.5 0.5l-115 30q-17 7-26-8-26-42-70.5-66t-93.5-24q-14 0-40 4-64 13-105.5 61.5t-48.5 113.5q-4 14-17 22l-43 13q-17 5-17 21v183zM527 117q14-2 22-2 45 0 72 32l-171 47q7-29 28-51t49-26z" />
<glyph unicode="&#xe073;" glyph-name="trash_fill" d="M213-81v631q0 10 8 18t18 8h546q12 0 19-8t7-18v-631q0-10-8-18t-18-8h-546q-10 0-18 8t-8 18zM828 704q10 0 17.5-6t7.5-15v-43q0-9-7-15t-14-6h-636q-10 0-17.5 6t-7.5 15v43q0 9 7.5 15t17.5 6h137q2 0 8.5 2t8.5 2l34 34q2 0 8.5 2.5t8.5 2.5h222q4 0 9.5-2.5t7.5-2.5l34-34q2 0 8.5-2t8.5-2h137z" />
<glyph unicode="&#xe074;" glyph-name="prohibited" d="M512 747q176 0 301.5-125.5t125.5-301.5-125.5-301.5-301.5-125.5-301.5 125.5-125.5 301.5 125.5 301.5 301.5 125.5zM243 111q49-64 120-98t148-34q115 0 210 72l-478 478q-72-92-72-209t72-209zM781 111q72 92 72 209t-72 209q-49 64-120 98t-148 34q-115 0-210-72z" />
<glyph unicode="&#xe075;" glyph-name="night" d="M151 400q6 82 52 165.5t118 137.5q6 3 12 3 9 0 16-5.5t7-14.5q0-57 7.5-120.5t36-148.5 75.5-132q114-114 384-205 16-5 16-18 0-9-7-16-56-53-139.5-82.5t-163.5-29.5q-20 0-30 1-165 15-275.5 137.5t-110.5 287.5q0 14 2 40z" />
<glyph unicode="&#xe076;" glyph-name="arrow_up" d="M874 392h1q7-7 7-18 0-12-8-19l-37-38q-8-8-19-8t-19 8l-234 234v-628q0-11-7.5-18.5t-18.5-7.5h-54q-11 0-18.5 7.5t-7.5 18.5v628l-234-234q-8-8-19-8t-19 8l-38 38q-7 7-7 19 0 11 7 18l344 344q7 7 19 7t19-7z" />
<glyph unicode="&#xe077;" glyph-name="arrow_up_thick" d="M529 741l371-379q5-7 5-15 0-10-7-17t-11-7h-226q-21 0-21-21v-388q0-21-21-21h-214q-21 0-21 21v388q0 21-21 21h-226q-4 0-11 7t-7 17q0 8 5 15 84 83 375 379 6 6 15 6t15-6z" />
<glyph unicode="&#xe078;" glyph-name="restore" d="M875 704q7 0 14-6.5t7-14.5v-726q0-9-6-15t-15-6h-726q-9 0-15 6t-6 15v726q0 9 6 15t15 6h726zM755 307q7 7 7 15t-7 15l-234 230q-7 7-15 7-9 0-15-7l-235-230q0-2-2-6t-2-7q0-21 21-21h154v-218q0-21 21-21h128q21 0 21 21v218h150z" />
<glyph unicode="&#xe079;" glyph-name="arrow_right" d="M584 683v-1l344-343q7-7 7-19t-7-19l-344-343q-7-8-18-8-12 0-19 8l-38 37q-8 8-8 19t8 19l234 234h-628q-11 0-18.5 7.5t-7.5 18.5v54q0 11 7.5 18.5t18.5 7.5h628l-234 234q-8 8-8 19t8 19l38 37q7 8 19 8 11 0 18-7z" />
<glyph unicode="&#xe07a;" glyph-name="arrow_right_thick" d="M554 708q319-311 379-371 6-6 6-15t-6-15q-296-291-379-375-8-5-15-5-10 0-17 7t-7 11v226q0 21-21 21h-388q-21 0-21 21v214q0 21 21 21h388q21 0 21 21v226q0 4 7 11t17 7q7 0 15-5z" />
<glyph unicode="&#xe07c;" glyph-name="arrow_down" d="M875 248h-1l-343-344q-7-7-19-7t-19 7l-344 344q-7 7-7 18 0 12 7 19l38 38q8 8 19 8t19-8l234-234v628q0 11 7.5 18.5t18.5 7.5h54q11 0 18.5-7.5t7.5-18.5v-628l234 234q8 8 19 8 9 0 19-8l37-38q8-7 8-19 0-11-7-18z" />
<glyph unicode="&#xe07d;" glyph-name="arrow_down_thick" d="M900 278q-311-319-371-379-6-6-15-6t-15 6q-291 296-375 379-5 7-5 15 0 10 7 17t11 7h226q21 0 21 21v388q0 21 21 21h214q21 0 21-21v-388q0-21 21-21h226q4 0 11-7t7-17q0-8-5-15z" />
<glyph unicode="&#xe07e;" glyph-name="archive" d="M875 704q6 0 13.5-7.5t7.5-13.5v-726q0-9-6-15t-15-6h-726q-9 0-15 6t-6 15v726q0 7 6.5 14t14.5 7h726zM759 299q2 2 9 17 0 21-21 21h-150v218q0 7-6 14t-15 7h-128q-9 0-15-7t-6-14v-222h-154q-8 0-13-4-6-8-6-15 0-9 6-15l235-231q6-6 15-6t15 6z" />
<glyph unicode="&#xe07f;" glyph-name="arrow_left" d="M440 682v1q7 7 18 7 12 0 19-8l38-37q8-8 8-19t-8-19l-234-234h628q11 0 18.5-7.5t7.5-18.5v-54q0-11-7.5-18.5t-18.5-7.5h-628l234-234q8-8 8-19t-8-19l-38-37q-7-8-19-8-11 0-18 8l-344 343q-7 7-7 19t7 19z" />
<glyph unicode="&#xe080;" glyph-name="arrow_left_thick" d="M91 337l379 371q8 5 15 5 10 0 17-7t7-11v-226q0-21 21-21h388q21 0 21-21v-214q0-21-21-21h-388q-21 0-21-21v-226q0-4-7-11t-17-7q-7 0-15 5-83 84-379 375-6 6-6 15t6 15z" />
<glyph unicode="&#xe082;" glyph-name="external_link_no_box" d="M421 704h475v-475h-119v272l-373-373-84 84 373 373h-272v119z" />
<glyph unicode="&#xe083;" glyph-name="expand" d="M917 747q7 0 14.5-6.5t7.5-15.5v-200q0-11-7-17t-17-6q-9 0-15 6l-72 72-214-213-59 60 213 213-68 68q-5 6-5 15 0 10 6.5 17t15.5 7h200zM107-107q-22 0-22 22v200q0 11 7 18t16 7q6 0 11-3l73-73 213 213 60-59-213-214 72-72q5-6 5-15 0-10-6.5-17t-15.5-7h-200z" />
<glyph unicode="&#xe084;" glyph-name="special_offer_fill_45deg" d="M866 677l30-307q0-13-4-17l-431-431q-6-6-15-6t-15 6l-333 333q-6 6-6 15t6 15l431 435q4 4 17 4l299-25q21-8 21-22zM708 502q20 0 31.5 11.5t11.5 31.5-11.5 31.5-31.5 11.5q-19 0-30.5-12t-11.5-31 11.5-31 30.5-12z" />
<glyph unicode="&#xe085;" glyph-name="special_offer_fill" d="M934 333q7-13 0-26l-196-234q-7-9-17-9h-614q-10 0-16 6t-6 15v470q0 9 6 15t16 6h614q10 0 17-9zM755 294q13 13 13 30 0 18-13 30-12 13-30 13-17 0-30-13-12-12-12-30 0-17 12-30 13-12 30-12 18 0 30 12z" />
<glyph unicode="&#xe086;" glyph-name="friend_fill" d="M341 533q0 71 50 121t121 50 121-50 50-121q0-70-50-120t-121-50-121 50-50 120zM832-64h-640q-21 0-21 21v184q0 8 4 13 62 80 151 123t185 43q146 0 261-90 45-31 77-76 4-5 4-13v-184q0-21-21-21z" />
<glyph unicode="&#xe087;" glyph-name="add_friend_fill" d="M428 363q-71 0-121 50t-50 120q0 71 50 121t121 50 121-50 50-121q0-70-50-120t-121-50zM428 619q-35 0-60-25.5t-25-60.5 25-60 60-25 60 25 25 60-25 60.5-60 25.5zM427 320q103 0 192-46t149-126v-212h-683v211q60 80 149.5 126.5t192.5 46.5zM682 21v97q-101 117-255 117-74 0-140.5-31t-115.5-87v-96h511zM939 576v-85h-86v-86h-85v86h-85v85h85v86h85v-86h86z" />
<glyph unicode="&#xe088;" glyph-name="star_rating_full" d="M997 469q27-8 27-33 0-6-1-8l-5-11-189-235q-11-18-11-26l21-312q0-15-9.5-25.5t-21.5-10.5q-10 0-15 5l-266 113q-3 0-8 2.5t-7 2.5-7-2.5-8-2.5l-266-113q-5-5-15-5-12 0-21.5 10.5t-9.5 25.5l21 312q0 8-11 26l-189 235q-5 5-5 11-1 2-1 8 0 25 27 33l281 71q11 6 20 16l154 261q15 15 30 15t30-15l154-261q9-10 20-16z" />
<glyph unicode="&#xe089;" glyph-name="star_rating_half" d="M482 817q15 15 30 15v-901q-2 0-7-2.5t-8-2.5l-266-113q-5-5-15-5-12 0-21.5 10.5t-9.5 25.5l21 312q0 8-11 26l-189 235q-5 5-5 11-1 2-1 8 0 25 27 33l281 71q11 6 20 16z" />
<glyph unicode="&#xe08a;" glyph-name="children" d="M710 469q-45 0-76 31t-31 76 31 76 76 31 76-31 31-76-31-76-76-31zM309 469q-45 0-76 31t-31 76q4 41 35 72t72 35q45 0 76-31t31-76-31-76-76-31zM932 247q9-18-4-25l-30-30q-6-6-15-6t-15 6l-47 47 38-154h-42v-106q0-22-22-22h-42q-22 0-22 22v106h-42v-106q0-22-22-22h-42q-22 0-22 22v106h-42l30 154-47-47q-8-6-15-6-9 0-15 6l-9 9-8-9q-7-6-15-6-9 0-15 6l-51 51v-264q0-22-22-22h-42q-22 0-22 22v106h-42v-106q0-22-22-22h-42q-10 0-15.5 5.5t-1.5 11.5v265l-52-51q-7-7-15-7-7 0-14 7l-30 30q-7 6-7 15 0 8 7 14 111 133 115 133 4 4 12.5 10.5t12.5 10.5q38 29 83 29 68 0 109-55 56-64 86-102l94 107q4 4 12.5 10.5t12.5 10.5q38 29 82 29 69 0 110-55z" />
<glyph unicode="&#xe08b;" glyph-name="travelers_choice_badge" d="M824 411q-22 38-29 89-1 7-1 21 0 42 18 79l7 13 7-13q23-46 29-96 2-8 2-24 0-38-20-70l-7-9zM839 282q-1 7-1 21 0 40 11 72 15 50 56 85l11 9 1-15q1-5 1-16 0-45-13-84-13-51-55-78l-10-6zM726 28l-11 2 5 10q30 39 69 64 46 27 96 27h2l15-1-9-12q-33-41-75-67-33-24-76-24-11 0-16 1zM925 298l14 4-4-14q-13-46-45-89-28-44-77-56l-12-2 2 11q12 47 41 85 34 43 81 61zM194 401l-7 9q-20 32-20 70 0 16 2 24 6 50 29 96l7 13 7-13q18-37 18-80 0-13-1-20-6-48-29-89zM174 276q-42 27-55 78-13 39-13 84 0 11 1 16l1 15 11-9q41-35 56-85 11-32 11-72 0-14-1-21l-1-12zM298 28q-6-1-16-1-42 0-77 24-43 28-75 67l-8 12 15 1h2q51 0 95-27 42-26 69-64l6-10zM211 143q-48 12-77 55-32 45-45 90l-4 14 14-4q49-20 81-61 29-40 41-85l2-11zM344 292q0 18 13 31t31 13 31-13 13-31q0-19-13-31.5t-31-12.5-31 12.5-13 31.5zM592 292q0 18 13 31t31 13 31-13 13-31q0-19-13-31.5t-31-12.5-31 12.5-13 31.5zM760 428l-40-45q40-35 40-91 0-52-36-88t-88-36q-50 0-84 33l-40-44-40 44q-34-33-84-33-52 0-88 36t-36 88q0 56 40 91l-40 45h90q72 48 158 48 88 0 158-48h90zM388 208q35 0 59.5 24.5t24.5 59.5-25 59.5-59 24.5-59-24.5-25-59.5 24.5-59.5 59.5-24.5zM512 294q0 40 26 74t67 49q-44 19-93 19t-93-19q41-15 67-49t26-74zM720 292q0 35-25 59.5t-59 24.5-59-24.5-25-59.5 24.5-59.5 59.5-24.5 59.5 24.5 24.5 59.5z" />
<glyph unicode="&#xe08c;" glyph-name="checkmark_c_fill" d="M512 747q176 0 301.5-125.5t125.5-301.5-125.5-301.5-301.5-125.5-301.5 125.5-125.5 301.5 125.5 301.5 301.5 125.5zM427 98l358 359-68 68-290-290-111 111-69-69z" />
<glyph unicode="&#xe08d;" glyph-name="lock" d="M698 436h124v-543h-620v543h124v133q0 74 54 126 57 52 132 52 74 0 131-52 55-52 55-126v-133zM419 569v-133h186v133q0 36-28 62-26 26-65 26t-65-26q-28-26-28-62zM745-29v388h-466v-388h466zM434 165q0 32 23 54.5t55 22.5 55-22.5 23-54.5-23-55-55-23-55 23-23 55z" />
<glyph unicode="&#xe08e;" glyph-name="lock_fill" d="M698 436h124v-543h-620v543h124v133q0 74 54 126 57 52 132 52 74 0 131-52 55-52 55-126v-133zM512 87q32 0 55 23t23 55-23 54.5-55 22.5-55-22.5-23-54.5 23-55 55-23zM605 436v133q0 36-28 62-26 26-65 26t-65-26q-28-26-28-62v-133h186z" />
<glyph unicode="&#xe08f;" glyph-name="diagonal_c_half_fill" d="M815 623q124-124 124-301 0-180-128-305-127-125-301-125-176 0-301 125t-125 303 125 303 303 125 303-125zM273 77l482 482q-99 99-239 99-141 0-243-99t-102-240q0-140 102-242z" />
<glyph unicode="&#xe090;" glyph-name="settings_fill" d="M917 182q4-2 5.5-4.5t3.5-10.5 3-10l-84-145q-16-14-26-8l-102 42q-42-34-72-42l-17-102q0-9-25-9h-170q-26 0-26 9l-17 102q-9 3-19 8t-16 9-18.5 12.5-18.5 12.5l-102-38q-21 0-25 8l-85 145q-9 18 4 25l85 68q-4 13-4 43 0 9 2 22.5t2 19.5l-93 68q-14 6-5 26l90 144q15 15 25 8l102-34q14 10 40 24.5t32 18.5l13 114q0 11 25 39h170q9 0 17.5-11.5t8.5-18.5l17-123q14-5 72-43l102 43q14 7 25-4l81-153q9-20-5-26l-89-72q5-13 5-42 0-9-2.5-23t-2.5-20zM509 148q63 0 103.5 43.5t40.5 105.5q0 58-42 101t-102 43q-59 0-101.5-45t-42.5-104q0-58 42.5-101t101.5-43z" />
<glyph unicode="&#xe091;" glyph-name="more_horizontal" d="M85 324q0 44 31.5 75.5t75.5 31.5 75.5-31.5 31.5-75.5-31.5-75-75.5-31-75.5 31-31.5 75zM725 324q0 44 31.5 75.5t75.5 31.5 75.5-31.5 31.5-75.5-31.5-75-75.5-31-75.5 31-31.5 75zM405 324q0 44 31.5 75.5t75.5 31.5 75.5-31.5 31.5-75.5-31.5-75-75.5-31-75.5 31-31.5 75z" />
<glyph unicode="&#xe092;" glyph-name="more_vertical" d="M405 4q0 44 31.5 75.5t75.5 31.5 75.5-31.5 31.5-75.5-31.5-75-75.5-31-75.5 31-31.5 75zM405 644q0 44 31.5 75.5t75.5 31.5 75.5-31.5 31.5-75.5-31.5-75-75.5-31-75.5 31-31.5 75zM405 324q0 44 31.5 75.5t75.5 31.5 75.5-31.5 31.5-75.5-31.5-75-75.5-31-75.5 31-31.5 75z" />
<glyph unicode="&#xe093;" glyph-name="checkbox_border" d="M909 747q22 0 30-26v-802q0-12-8-19t-18-7h-802q-26 0-26 22v806q0 26 26 26h798zM850-21v682h-680v-682h680z" />
<glyph unicode="&#xe094;" glyph-name="checkbox_checked" d="M909 747q22 0 30-26v-802q0-12-8-19t-18-7h-802q-26 0-26 22v806q0 26 26 26h798zM412 77l395 397-76 72-319-320-123 124-72-73z" />
<glyph unicode="&#xe095;" glyph-name="alert_fill" d="M934 17q5-4 5-13 0-10-6.5-18t-15.5-8h-810q-9 0-9 5-13 8-13 20 0 6 5 14l401 631q7 9 8 9 8 5 14 5 12 0 16-9zM555 68v81h-86v-81h86zM555 192v243h-86v-243h86z" />
<glyph unicode="&#xe096;" glyph-name="alert" d="M934 17q5-4 5-13 0-10-6.5-17.5t-15.5-7.5h-810q-9 0-9 4-13 8-13 21 0 6 5 13l405 636q8 8 17 8t17-8zM226 68h572l-286 448zM469 107v85h86v-85h-86zM469 235v170h86v-170h-86z" />
<glyph unicode="&#xe097;" glyph-name="instant" d="M751 393q9 0 14.5-7t5.5-16q0-6-3-12l-307-456q-7-9-18-9-8 0-14.5 6t-6.5 16v320q0 21-21 21h-124q-9 0-14.5 5.5t-5.5 13.5q0 5 3 11l265 452q5 9 15 9t18-6 9-16l-4-311q0-21 22-21h166z" />
<glyph unicode="&#xe098;" glyph-name="dmo" d="M469 450v85h86v-85h-86zM469 151v256h86v-256h-86zM934 335q8-15 0-30l-106-107q0-2-2.5-8t-2.5-9v-149q0-21-21-21h-149q-13 0-17-5l-107-106q-6-7-15-7t-15 7l-106 106q-3 0-9 2.5t-9 2.5h-149q-21 0-21 21v149q0 13-4 17l-107 107q-7 7-7 15t7 15l107 107q0 2 2 8t2 9v149q0 21 21 21h150q2 0 8 2.5t9 2.5l106 106q7 7 15 7 9 0 15-7l107-106q2 0 8.5-2.5t8.5-2.5h149q21 0 21-21v-149q0-13 5-17zM742 224l94 102-94 94v137h-136l-94 94-98-98h-137v-137l-94-94 90-89q0-3 2-9.5t2-8.5v-128h128q13 0 17-4l90-89 94 93h136v137z" />
<glyph unicode="&#xe099;" glyph-name="reply_fill" d="M933 61q5-9 5-19 0-3-0.5-8t-0.5-7q-11-14-28-14-13 0-23 10-162 143-435 149v-175q-3-2-5-6.5t-4-6.5q-9-6-21-6-11 0-17 6l-312 316q-6 9-6 19t6 19l307 316q10 8 13 8 11 0 20.5-6t9.5-15v-171q170-26 303-136.5t188-272.5z" />
<glyph unicode="&#xe09a;" glyph-name="share" d="M634 543h244v-650h-732v650h244v-81h-162v-487h568v487h-162v81zM471 259v335h-100l141 153 141-153h-100v-335h-82z" />
<glyph unicode="&#xe09b;" glyph-name="feedback_love" d="M913 747q10 0 18-8t8-18v-589q0-10-8-17.5t-18-7.5h-171q-12 0-17-5l-273-200q-2 0-6-2t-7-2q-2-1-6-1-21 0-28 26v158q0 10-7.5 18t-17.5 8h-269q-10 0-18 7.5t-8 17.5v589q0 10 8 18t18 8h802zM521 290l17 13q18 12 33 23.5t37.5 30.5 38 36.5 27.5 38 13 37.5q0 41-30 69.5t-72 28.5q-37 0-64-21-7-6-13 0-36 21-64 21-3 1-7 1-39 0-67.5-29.5t-28.5-69.5q0-32 39-75t72.5-67 50.5-33l9-8z" />
<glyph unicode="&#xe09c;" glyph-name="traveler_article" d="M341 235v89h342v-89h-342zM341 107v85h342v-85h-342zM341 363v85h342v-85h-342zM832 704q21 0 21-21v-768q0-22-21-22h-640q-7 0-14 6.5t-7 15.5v768q0 9 7 15t14 6h107v21q0 9 7 15.5t14 6.5h43q9 0 15-6t6-16v-21h85v21q0 9 7.5 15.5t14.5 6.5h42q22 0 22-22v-21h85v21q0 9 7 15.5t14 6.5h43q21 0 21-22v-21h107zM768-21v640h-43v-22q0-21-21-21h-43q-7 0-14 6.5t-7 14.5v22h-85v-22q0-9-6-15t-16-6h-42q-7 0-14.5 6.5t-7.5 14.5v22h-85v-22q0-9-6-15t-15-6h-43q-7 0-14 6t-7 15v22h-43v-640h512z" />
<glyph unicode="&#xe09d;" glyph-name="custom_note" d="M518 582q7 7 15 7t15-7l141-140q6-6 6-15t-6-15.5-15-6.5h-141q-8 0-14.5 6.5t-6.5 15.5v140q0 9 6 15zM847 497q6-6 6-15v-567q0-9-6-15.5t-15-6.5h-640q-9 0-15 6.5t-6 15.5v810q0 9 6 15.5t15 6.5h397q8 0 15-7zM768-21v478l-205 204h-307v-682h512z" />
<glyph unicode="&#xe09e;" glyph-name="level_badge" d="M764 533q28-15 43.5-44.5t15.5-61.5v-214q0-35-17.5-64.5t-46.5-46.5l-183-106q-29-16-59-16-34 0-65 20l-183 107q-29 16-46.5 45t-17.5 61v214q0 32 17.5 61t46.5 45l188 107q28 16 61 16 34 0 62-16zM823 597q39-22 62.5-63t23.5-86v-256q0-45-23.5-86t-62.5-63l-226-128q-32-22-81-22-51 0-89 26l-222 128q-39 23-62.5 62t-23.5 83v252q0 44 24 85t62 64l222 128q38 26 89 26 42 0 86-22zM853 192v256q0 33-15.5 62t-43.5 45l-222 128q-33 12-56 12-35 0-64-17l-222-128q-29-14-46.5-41t-17.5-56v-261q0-32 17.5-59t46.5-43l222-128q29-17 64-17 34 0 56 17l222 123q26 17 42.5 46t16.5 61z" />
<glyph unicode="&#xe09f;" glyph-name="level_badge_fill" d="M823 597q39-22 62.5-63t23.5-86v-256q0-45-23.5-86t-62.5-63l-226-128q-32-22-81-22-51 0-89 26l-222 128q-39 23-62.5 62t-23.5 83v252q0 44 24 85t62 64l222 128q38 26 89 26 42 0 86-22z" />
<glyph unicode="&#xe0a0;" glyph-name="award" d="M834 2q16 0 22-21v-43q0-21-22-21h-644q-21 0-21 21v43q0 21 21 21h644zM877 629q7-7 7-15 0-6-7-15l-85-59q0-3-2-5t-2-4q-29-70-86.5-116.5t-131.5-62.5q-17-8-17-21v-141q0-21 17-21 88-21 132-90 4-4 4-13 0-21-21-21h-363q-8 8-8 18 0 7 4 12 51 72 132 85 18 8 18 21v141q0 9-5.5 15t-12.5 6q-74 17-131.5 65.5t-85.5 118.5q0 8-4 8l-81 69-5 4q0 1-1 3.5t-1.5 4.5-0.5 4q0 10 8 18l72 60q0 4 2 12.5t2 12.5h572q0-7 2-16.5t2-13.5z" />
<glyph unicode="&#xe0a1;" glyph-name="bell" d="M559 602q162-19 270.5-140t109.5-284v-47h-854v47q1 163 109.5 284t270.5 140v50q0 19 13.5 33t33.5 14 33.5-14 13.5-33v-50zM184 225h657q-17 109-94 186t-186 94q-24 3-49 3-122 0-216-80t-112-203zM85-59v94h854v-94h-854z" />
<glyph unicode="&#xe0a2;" glyph-name="deals" d="M855 161h84v-250h-251v83h167v167zM939 747v-374l-481-480-373 372 481 482h373zM855 408v255h-255l-396-397 254-254zM709 454q-26 0-45 18-18 18-18 44 0 27 18 45 19 18 45 18t44-18 18-45q0-26-18-44t-44-18z" />
<glyph unicode="&#xe0a3;" glyph-name="destination" d="M918 576l-125-278 125-278h-428v86h-299v-213h-85v811q0 18 12.5 30.5t30.5 12.5q17 0 29.5-12.5t12.5-30.5v-43h384v-85h343zM490 191v385h-299v-385h299zM786 106l-87 192 87 192h-211v-384h211z" />
<glyph unicode="&#xe0a4;" glyph-name="camera_fill" d="M405 277q0 44 31.5 75.5t75.5 31.5 75.5-31.5 31.5-75.5-31.5-75-75.5-31-75.5 31-31.5 75zM917 597q22 0 22-21v-597q0-22-22-22h-810q-22 0-22 22v597q0 21 22 21h140q13 0 18 5l72 72q9 9 13 9h324q3 0 8-3t5-6l72-72q3 0 9-2.5t9-2.5h140zM512 85q80 0 136 56t56 136-56 136-136 56-136-56-56-136 56-136 136-56z" />
<glyph unicode="&#xe0a5;" glyph-name="lock_open" d="M698 436h124v-543h-620v543h403v133q0 36-28 62-26 26-65 26t-65-26q-28-26-28-62h-93q0 74 54 126 57 52 132 52 74 0 131-52 55-52 55-126v-133zM745-29v388h-466v-388h466zM434 165q0 32 23 54.5t55 22.5 55-22.5 23-54.5-23-55-55-23-55 23-23 55z" />
<glyph unicode="&#xe0a6;" glyph-name="lock_open_fill" d="M698 436h124v-543h-620v543h403v133q0 36-28 62-26 26-65 26t-65-26q-28-26-28-62h-93q0 74 54 126 57 52 132 52 74 0 131-52 55-52 55-126v-133zM512 87q32 0 55 23t23 55-23 54.5-55 22.5-55-22.5-23-54.5 23-55 55-23z" />
<glyph unicode="&#xe0a7;" glyph-name="tools" d="M917 47q22-29 22-60 0-38-28-66t-66-28q-31 0-60 22l-371 371q-42-19-92-19-10 0-28 2-67 10-120.5 55t-75.5 111q-13 42-13 76 0 35 13 74 0 2 2 4t2 4q11 6 19 6 9 0 16-6l115-115q7-7 17-7t17 7l68 64q7 7 7 17t-7 17l-115 119q0 3-2 5t-2 4q-2 6-2 9 0 17 19 21 37 13 72 13 34 0 73-13 2 0 6-2t7-2q69-28 110.5-89.5t41.5-134.5q0-43-16-84l64-64t95.5-96.5 98.5-100 80-81 33-33.5z" />
<glyph unicode="&#xe0a8;" glyph-name="favorite_pin" d="M936 420q8-7 0-15l-54-54-108-15-93-93-42-272q-1-9-11-9-5 0-8 3l-201 201-272-273-62 62 273 272-201 201q-4 5-2 11t8 7l272 44 92 92 16 107 54 54q3 4 8 4 4 0 7-4zM733 418l72 10-185 185-10-72-133-133-152-24 251-251 24 152z" />
<glyph unicode="&#xe0a9;" glyph-name="layers" d="M836 260l56-42q4-5 4-12 0-11-9-18l-362-290q-13-7-26 0l-367 294q-4 4-4 11 0 12 9 19l51 38 324-260zM909 435l-397-316-397 316 384 307q13 7 26 0z" />
<glyph unicode="&#xe0aa;" glyph-name="member" d="M512 747q177 0 302-125t125-302-125-302-302-125-302 125-125 302 125 302 302 125zM336 28q80-49 176-49t176 49q-13 46-47.5 80.5t-80.5 47.5q-24 6-48 6-61 0-110.5-37t-65.5-97zM758 84q95 98 95 237 0 138-95 236-101 105-246 105-136 0-236-95-105-101-105-247 0-138 95-236 43 101 143 143 49 21 103 21 79 0 146.5-44t99.5-120zM512 576q62 0 105.5-43.5t43.5-105.5-43.5-106-105.5-44-105.5 44-43.5 106 43.5 105.5 105.5 43.5zM512 363q26 0 45 18.5t19 45.5q0 26-19 45t-45 19-45-19-19-45q0-27 19-45.5t45-18.5z" />
<glyph unicode="&#xe0ab;" glyph-name="member_fill" d="M688 415q0-69-52-119.5t-123-50.5q-73 0-124 51t-51 124 50.5 121.5 124.5 48.5 124.5-50.5 50.5-124.5zM512-107q-103 0-192 46t-149 125q147 131 341 131t341-131q-60-79-149-125t-192-46z" />
<glyph unicode="&#xe0ac;" glyph-name="credit_card" d="M917 661q22 0 22-21v-640q0-21-22-21h-815q-21 0-21 21v640q0 21 21 21h815zM849 64v256h-683v-256h683zM849 491v85h-683v-85h683z" />
<glyph unicode="&#xe0ad;" glyph-name="wallet_fill" d="M922 533q17-8 17-21v-555q0-9-6-15t-16-6h-810q-10 0-16 6t-6 15v555q5 14 22 21l657 171q20 0 25-17l43-154h90zM721 606l-294-73h315zM725 188q28 0 46 19t18 45q0 25-19.5 44.5t-44.5 19.5-44.5-19.5-19.5-44.5 19.5-44.5 44.5-19.5z" />
<glyph unicode="&#xe0ae;" glyph-name="wallet" d="M922 533q17-8 17-21v-555q0-9-6-15t-16-6h-810q-10 0-16 6t-6 15v555q5 14 22 21l657 171q20 0 25-17l43-154h90zM721 606l-294-73h315zM853 21v427h-682v-427h682zM725 188q-25 0-44.5 19.5t-19.5 44.5 19.5 44.5 44.5 19.5 44.5-19.5 19.5-44.5q0-26-18-45t-46-19z" />
<glyph unicode="&#xe0af;" glyph-name="gallery" d="M448 747q21 0 21-22v-341q0-21-21-21h-341q-22 0-22 21v341q0 22 22 22h341zM917 747q22 0 22-22v-341q0-21-22-21h-341q-21 0-21 21v341q0 22 21 22h341zM448 277q21 0 21-21v-341q0-22-21-22h-341q-22 0-22 22v341q0 21 22 21h341zM917 277q22 0 22-21v-341q0-22-22-22h-341q-21 0-21 22v341q0 21 21 21h341z" />
<glyph unicode="&#xe0b0;" glyph-name="video_fill" d="M917 586q22 0 22-22v-486q0-8-9-17-7-7-15-7-6 0-15 7l-175 192v132l175 192q11 9 17 9zM619 597q21 0 21-21v-512q0-21-21-21h-512q-22 0-22 21v512q0 21 22 21h512z" />
<glyph unicode="&#xe0b1;" glyph-name="photo" d="M256 427q0 26 19 45t45 19 45-19 19-45q0-27-19-45.5t-45-18.5-45 18.5-19 45.5zM277 149q-10 0-16.5 6.5t-6.5 15.5q0 8 6 17l68 59q7 7 18 7 10 0 17-7l47-46q6-7 17-7 10 0 17 7l128 115q6 6 17 6t17-6l153-128q6-5 6-15t-6-17-17-7h-465zM917 661q22 0 22-21v-640q0-21-22-21h-810q-22 0-22 21v640q0 21 22 21h810zM853 64v512h-682v-512h682z" />
<glyph unicode="&#xe0b2;" glyph-name="storyboard" d="M917 661q22 0 22-21v-640q0-21-22-21h-810q-22 0-22 21v640q0 21 22 21h810zM853 64v512h-682v-512h682zM474 196q-10-5-18-5-12 0-20.5 7.5t-8.5 19.5v204q0 12 9 19.5t21 7.5q9 0 17-5l153-103q13-9 13-23 0-13-13-19z" />
<glyph unicode="&#xe0b3;" glyph-name="management_center" d="M192 107q-21 0-21 21v512q0 21 21 21h640q21 0 21-21v-512q0-21-21-21h-640zM256 576v-384h512v384h-512zM917 64q10 0 16-6t6-15v-43q0-21-22-21h-810q-22 0-22 21v43q0 9 6 15t16 6h810zM299 363v170h170v-170h-170zM299 235v85h170v-85h-170zM512 235v170h213v-170h-213zM512 448v85h213v-85h-213z" />
<glyph unicode="&#xe0b4;" glyph-name="flights_arrival" d="M128-21v85h768v-85h-768zM183 311q-12 7-12 22l-9 222v4q7 18 21 18 3 0 5-1l47-13q3 0 7.5-4.5t4.5-8.5l47-128q5-4 13-12l124-39h4q22 0 22 22l-5 256v4q7 18 20 18 4 0 6-1l43-13q17 0 17-13l85-307q9-17 17-17l171-47q13 0 21-8 30-16 30-47 0-26-17-45.5t-43-23.5q-1-3-10.5-1.5t-10.5 1.5v0q-46 13-175 48t-266 71.5-157 42.5z" />
<glyph unicode="&#xe0b5;" glyph-name="flights_departure" d="M128-21v85h768v-85h-768zM260 149q-6-3-11.5-0.5t-5.5 9.5l-119 188-5 4q0 19 18 25l42 13q17 0 22-4l102-85q8-5 21-5l124 35 4 4q11 7 11 19 0 5-2 11l-132 217-5 5q-5 16 13 25l43 13q17 0 21-9l235-217q7-16 21-9l171 47h21q29-7 47-30 12-16 12-36 0-33-29-53-16-9-21-9v0q-74-18-305-79t-293-79z" />
<glyph unicode="&#xe0b6;" glyph-name="repost_fill" d="M91 61q54 163 185 273t301 136v171q4 9 14 15t20 6q5 0 13-8l307-316q7-8 7-19t-7-19l-311-316q-6-6-18-6-11 0-20 6-3 2-5 6.5t-4 6.5v175q-258 0-427-149-10-10-23-10-17 0-28 14-9 9-9 19 0 7 5 15z" />
<glyph unicode="&#xe0b7;" glyph-name="link" d="M731 171l-70 70 131 131q47 47 47 114 0 68-47 114-46 48-114 48-66 0-114-48l-131-131-70 70 131 131q75 77 184 77t184-77q77-75 77-184 0-107-77-184zM346-107q-109 0-184 77-77 75-77 184 0 107 77 184l131 131 70-70-131-131q-47-47-47-114 0-68 47-114 46-48 114-48 66 0 114 48l131 131 70-70-131-131q-75-77-184-77zM398 156q-20 0-35 15t-15 35 15 35l221 221q14 14 35 14 19 0 35-14 14-16 14-35 0-21-14-35l-221-221q-15-15-35-15z" />
<glyph unicode="&#xe0b8;" glyph-name="quote_decorative" d="M252 746q4 1 12 1 91 0 150-77 56-85 56-192 0-3-0.5-10.5t-0.5-11.5q-6-142-98-260-92-130-234-196l-39 77q97 46 171 132 62 83 68 188h-51q-47 0-98 12-40 24-64 43-1 2-12.5 24.5t-13.5 35.5q-13 34-13 64 0 74 52 119 43 44 115 51zM883 670q56-85 56-192 0-3-0.5-10.5t-0.5-11.5q-6-142-98-260-92-131-235-196l-38 77q97 46 171 132 62 81 68 188h-51q-47 0-98 12-40 24-64 43-11 14-30 55-9 58-9 69 0 74 52 119 43 44 115 51 4 1 12 1 91 0 150-77z" />
<glyph unicode="&#xe0b9;" glyph-name="quote" d="M85 363v384h384v-384l-128-214h-170l128 214h-214zM555 747h384v-384l-128-214h-171l128 214h-213v384z" />
<glyph unicode="&#xe0ba;" glyph-name="bookmark" d="M789 741q22 0 22-22v-797q0-11-7-17t-16-6q-2 0-4 0.5t-3 0.5l-269 115-269-115q-1 0-3-0.5t-4-0.5q-9 0-16 6t-7 17v797q0 22 22 22h554zM725 15v640h-426v-640l213 90z" />
<glyph unicode="&#xe0bb;" glyph-name="bookmark_fill" d="M789 741q22 0 22-22v-797q0-11-7-17t-16-6q-2 0-4 0.5t-3 0.5l-269 115-269-115q-1 0-3-0.5t-4-0.5q-9 0-16 6t-7 17v797q0 22 22 22h554z" />
<glyph unicode="&#xe0bc;" glyph-name="verified_checkmark_fill" d="M932 307l-81-89q-4-5-4-17l13-120q0-6-5.5-13.5t-11.5-7.5l-116-26q-4 0-12-8l-60-103q-10-10-22-10-4 0-8 2l-107 47q-8 8-17 0l-106-47q-8-2-10-2-15 0-20 10l-60 103q0 8-13 8l-115 26q-17 0-17 21l13 120q0 12-4 17l-77 85q-14 12 0 26l77 89q4 4 4 17l-13 120q0 16 17 25l115 26q13 0 13 8l60 103q10 10 20 10 2 0 10-2l106-47q9-8 17 0l107 47q8 2 10 2 15 0 20-10l60-103q0-3 4.5-5.5t7.5-2.5l116-26q17 0 17-21l-13-120q0-12 4-17l81-89q13-13 0-26zM433 132l311 316-55 60-256-256-98 98-60-60z" />
<glyph unicode="&#xe0bd;" glyph-name="verified_fill" d="M932 307l-81-89q-4-5-4-17l13-120q0-6-5.5-13.5t-11.5-7.5l-116-26q-4 0-12-8l-60-103q-10-10-22-10-4 0-8 2l-107 47q-8 8-17 0l-106-47q-8-2-10-2-15 0-20 10l-60 103q0 8-13 8l-115 26q-17 0-17 21l13 120q0 12-4 17l-77 85q-14 12 0 26l77 89q4 4 4 17l-13 120q0 16 17 25l115 26q13 0 13 8l60 103q10 10 20 10 2 0 10-2l106-47q9-8 17 0l107 47q8 2 10 2 15 0 20-10l60-103q0-8 13-8l115-26q17 0 17-21l-13-120q0-12 4-17l81-89q13-13 0-26z" />
<glyph unicode="&#xe0be;" glyph-name="users" d="M341 427q-57 0-97.5 40.5t-40.5 97.5q0 58 40.5 98.5t97.5 40.5q58 0 98.5-40.5t40.5-98.5q0-57-40.5-97.5t-98.5-40.5zM341 619q-22 0-37.5-16t-15.5-38 15.5-37.5 37.5-15.5 38 15.5 16 37.5-15.5 38-38.5 16zM683 341q-58 0-98.5 41t-40.5 98 40.5 98 98.5 41q57 0 98-40.5t41-98.5q0-57-41-98t-98-41zM683 533q-22 0-37.5-15.5t-15.5-37.5 15.5-37.5 37.5-15.5 37.5 15.5 15.5 37.5-15.5 37.5-37.5 15.5zM930 174l9-11v-227h-854v314l9 11q44 59 108.5 91t139.5 32q142 0 233-105 52 20 108 20 73 0 138-33t109-92zM171 21h256v141l8 11q23 31 63 63-65 63-156 63-107 0-171-78v-200zM853 21v113q-68 79-170 79-104 0-171-80v-112h341z" />
<glyph unicode="&#xe0bf;" glyph-name="pause" d="M512 747q176 0 301.5-125.5t125.5-301.5-125.5-301.5-301.5-125.5-301.5 125.5-125.5 301.5q0 177 124 302t303 125zM512-21q141 0 241 100t100 241-100 241-241 100-241-100-100-241 100-241 241-100zM384 107v426h85v-426h-85zM555 107v426h85v-426h-85z" />
<glyph unicode="&#xe0c0;" glyph-name="play" d="M512 747q176 0 301.5-125.5t125.5-301.5-125.5-301.5-301.5-125.5-301.5 125.5-125.5 301.5q0 177 124 302t303 125zM512-21q141 0 241 100t100 241-100 241-241 100-241-100-100-241 100-241 241-100zM678 329q7-4 7-11.5t-7-10.5l-230-132q-7-3-14 1.5t-7 11.5v260q0 9 7 12.5t14 0.5z" />
<glyph unicode="&#xe0c1;" glyph-name="volume_off" d="M516 644q9 6 18 6 20 0 25-19v-618q0-11-7-17t-16-6-15 6l-171 170q-2 0-8.5 2.5t-8.5 2.5h-184q-21 0-21 21v256q0 21 21 21h184q13 0 13 5zM905 410l-90-90 90-90-60-64-90 94-89-89-60 59 85 90-89 90 64 59 89-89 90 94z" />
<glyph unicode="&#xe0c2;" glyph-name="volume_on" d="M640 533q63-28 102-88t39-125v-8q0-64-40.5-122t-100.5-83v426zM516 644q9 6 18 6 20 0 25-19v-618q0-11-7-17t-16-6-15 6l-171 170q-2 0-8.5 2.5t-8.5 2.5h-184q-21 0-21 21v256q0 21 21 21h184q13 0 13 5z" />
<glyph unicode="&#xe0c3;" glyph-name="suitcase" d="M640 61v340h85v-340h-85zM853 552q35 0 60.5-25.5t25.5-60.5v-469q0-35-25.5-60t-60.5-25h-682q-35 0-60.5 25t-25.5 60v469q0 35 25.5 60.5t60.5 25.5h191v123q0 22 16 37.5t38 15.5h192q22 0 37.5-15.5t15.5-37.5v-123h192zM448 643v-91h128v91h-128zM853-4v469h-682v-469h682zM298 61v340h86v-340h-86z" />
<glyph unicode="&#xe0c4;" glyph-name="suitcase_fill" d="M853 552q35 0 60.5-25.5t25.5-60.5v-469q0-35-25.5-60t-60.5-25h-682q-35 0-60.5 25t-25.5 60v469q0 35 25.5 60.5t60.5 25.5h191v123q0 22 16 37.5t38 15.5h192q22 0 37.5-15.5t15.5-37.5v-123h192zM384 61v340h-86v-340h86zM576 552v91h-128v-91h128zM725 61v340h-85v-340h85z" />
<glyph unicode="&#xe0c5;" glyph-name="my_trips" d="M439 597v-42h-98v106q0 22 22 22h298q22 0 22-22v-106h-86v42h-158zM542 85v-8q7-43 34-77h-427q-9 0-15 6t-6 15v470q0 9 6 15t15 6h726q9 0 15-6t6-15v-265q-38 9-47 9-26 0-38-5v197h-86v-192q-12 4-38 4h-4q-20 0-43-9v197h-256v-342h158zM299 85v342h-86v-342h86zM909 137q14-21 14-44 0-73-142-174-7-7-22 0-149 98-149 173 0 24 17 45 22 33 59 33 40 0 82-51 39 51 80 51 16 0 31.5-8.5t22.5-16.5z" />
<glyph unicode="&#xe0c6;" glyph-name="my_trips_fill" d="M439 597v-42h-98v106q0 22 22 22h298q22 0 22-22v-106h-86v42h-158zM572 179q-31-30-31-84 0-12 1-18 7-43 34-77h-427q-9 0-15 6t-6 15v470q0 9 6 15t15 6h726q9 0 15-6t6-15v-261q-31 9-47 9-41 0-81-26v214h-85v-188q-63-6-111-60zM341 85v342h-85v-342h85zM909 137q14-21 14-44 0-73-142-174-7-7-22 0-149 98-149 173 0 24 17 45 22 33 59 33 40 0 82-51 39 51 80 51 16 0 31.5-8.5t22.5-16.5z" />
<glyph unicode="&#xe0c7;" glyph-name="compass" d="M512 747q177 0 302-125t125-302-125-302-302-125-302 125-125 302 125 302 302 125zM512-21q141 0 241 100t100 241-100 241-241 100-241-100-100-241 100-241 241-100zM335 145l59 292 292 59-58-293zM466 365l-22-112 111 23 22 111z" />
<glyph unicode="&#xe0c8;" glyph-name="compass_fill" d="M579 387l-23-111-111-23 23 112zM512 747q177 0 302-125t125-302-125-302-302-125-302 125-125 302 125 302 302 125zM629 203l58 293-292-59-58-292z" />
<glyph unicode="&#xe0c9;" glyph-name="sort" d="M375 742l128-119q6-7 6-17 0-21-23-21h-81v-692h-89v692h-81q-9 0-15 5.5t-6 13.5 8 15l124 123q6 4 16 4t13-4zM794 55q10 0 16.5-7t6.5-16-6-15l-128-119q-10-7-19-7t-15 7l-128 119q-6 7-6 17 0 21 23 21h81v692h89v-692h86z" />
<glyph unicode="&#xe0ca;" glyph-name="text_message_fill" d="M630 343v95h95v-95h-95zM465 343v95h95v-95h-95zM298 343v95h95v-95h-95zM844 628h-664v-586l131 112 532-1zM939 723l-1-665-592 1-166-142h-95v806h854z" />
<glyph unicode="&#xe0cb;" glyph-name="bathroom_fill" d="M915 272q17-7 17-26l-72-256q-7-17-22-17h-21v-43h-85v43h-427v-43h-85v43h-34q-15 0-22 17l-72 256v4q0 22 21 22h21v405q0 21 22 21h170q24 12 48 12 46 0 80-37l-170-171q-29 34-29 82 0 14 3 29h-17q-21 0-21-21v-320h695zM604 400q0 17 12.5 29.5t29.5 12.5q18 0 30.5-12.5t12.5-29.5q0-18-12.5-30.5t-30.5-12.5q-17 0-29.5 12.5t-12.5 30.5zM518 485q0 18 13 30.5t30 12.5q18 0 30.5-12.5t12.5-30.5-12.5-30.5-30.5-12.5q-17 0-30 12.5t-13 30.5zM433 400q0 17 12.5 29.5t30.5 12.5q17 0 29.5-12.5t12.5-29.5q0-18-12.5-30.5t-29.5-12.5q-18 0-30.5 12.5t-12.5 30.5zM433 570q0 18 12.5 30.5t30.5 12.5q17 0 29.5-12.5t12.5-30.5q0-17-12.5-29.5t-29.5-12.5q-18 0-30.5 12.5t-12.5 29.5zM348 485q0 18 12.5 30.5t29.5 12.5q18 0 30.5-12.5t12.5-30.5-12.5-30.5-30.5-12.5q-17 0-29.5 12.5t-12.5 30.5z" />
<glyph unicode="&#xe0cc;" glyph-name="ports" d="M934 166q3-3 1-8t-5-5h-55q-45-117-144-188.5t-219-71.5q-121 0-218.5 72t-139.5 188h-60q-3 0-5 5t1 8l98 115q4 4 8 0l98-115q3-2 3.5-5t-1.5-5.5-6-2.5h-51q51-102 158-149 4-4 11-4 8 0 13.5 6t5.5 15l30 435h-141q-10 0-16 6t-6 15v43q0 21 22 21h145l4 43q-43 28-43 77 0 35 27 60.5t63 25.5q8 0 13-1 22-6 39.5-23.5t24.5-40.5q4-18 4-25 0-48-43-73l5-43h145q21 0 21-21v-43q0-21-21-21h-141l34-435q0-21 19-21 7 0 15 4 99 36 162 149h-55q-3 0-5 5t1 8l98 115q4 4 8 0z" />
<glyph unicode="&#xe0cd;" glyph-name="map_and_pin" d="M821 298l116-315q0-11-17-17l-261-73h-8l-303 68h-13l-222-68q-19 0-26 17l43 312q0 16 17 21 8 3 52 20.5t81.5 32 54.5 19.5q6 4 14 1t12-9q12-19 55-89.5t55-89.5l13-13q16-10 35-10 32 0 46 23 26 34 86 128l145 55q4 2 7 2 13 0 18-15zM512 747q80 0 136-57t56-138q0-42-39.5-120.5t-75-132-66.5-95.5q-4-6-11-6t-11 6q-181 256-181 348 0 81 56 138t136 57zM512 492q22 0 38.5 16.5t16.5 38.5-16.5 38.5-38.5 16.5-38.5-16.5-16.5-38.5 16.5-38.5 38.5-16.5z" />
<glyph unicode="&#xe0ce;" glyph-name="repost" d="M149 320q-9 0-15 6t-6 15v265q0 21 21 21h576v94q0 11 8 19t18 8q7 0 13-6l123-145q7-8 7-20t-7-18l-123-145q-5-8-15-8-9 0-16.5 7t-7.5 18v102h-503v-192q0-9-6-15t-15-6h-52zM875 320q9 0 15-6t6-15v-265q0-21-21-21h-576v-94q0-11-8-19t-18-8q-7 0-13 6l-123 145q-7 8-7 20t7 18l123 145q5 8 15 8 9 0 16.5-7t7.5-18v-102h503v192q0 9 6 15t15 6h52z" />
<glyph unicode="&#xe0cf;" glyph-name="notification_bell_fill" d="M513-109q-54 0-91 37t-37 91h256q0-54-36.5-91t-91.5-37zM842 151q14-7 8-17v-51q1-2 1-6 0-15-18-15h-644q-17 0-17 21v51q0 9 13 22l68 34h4q0 32 0.5 72t1.5 74.5 1.5 64 1 47.5 0.5 19q-1 3-1 9 0 146 167 179v8q0 35 25 60.5t60 25.5 60.5-25.5 25.5-60.5v-8q77-17 123.5-63.5t46.5-120.5v-281h5z" />
<glyph unicode="&#xe0d0;" glyph-name="partner" d="M726-28l-13 9q-15 9-42 29t-65.5 52.5-66 71-27.5 69.5q0 51 38 88t90 37q38 0 77-27 7-3 13 0 44 27 81 27 53 0 90.5-36t37.5-87q0-32-27-70.5t-66.5-71-66-52-41.5-28.5zM469 127q19-34 50-69 0-1-0.5-1t-0.5-1l-48-32-48 32q-49 33-97 70t-107.5 91.5-96 113.5-36.5 110q0 94 68 160.5t163 66.5q78 0 157-61 77 61 149 61 96 0 163.5-66.5t67.5-160.5q0-25-9-52-16 3-33 3-32 0-65-12 22 35 22 61 0 57-43 99t-103 42q-30 0-65-21.5t-53-39.5l-35-27-31 31q-17 17-53 37t-69 20q-60 0-103-42t-43-99q0-58 93-148t206-166z" />
<glyph unicode="&#xe0d1;" glyph-name="instagram" d="M936 495q0-12 2-60t2-115q0-66-2-113t-2-62q-8-68-21-102-17-42-50-75t-74-49q-55-21-102-21-56-5-175-5-120 0-180 5-68 8-102 21-41 16-74.5 49t-49.5 75q-21 60-21 102-3 45-3 88 0 42 3 87 0 66 2 113t2 62q0 48 22 107 32 84 123 119 48 21 98 21 60 5 180 5h175q72-11 102-22 88-31 124-128 21-55 21-102zM859 149q0 16 2 62t3 109q0 63-2.5 109t-2.5 62q0 43-13 81-19 60-81 81-41 13-81 13-55 4-170 4-64 0-110-2t-61-2q-38 0-85-13-62-21-81-81 0-1-13-81-5-56-5-171 0-63 2.5-109t2.5-62q0-47 17-81 21-61 81-81 49-13 81-13 55-4 171-4 64 0 109 2t61 2q40 0 81 13 62 21 81 81 13 38 13 81zM518 538q89 0 153.5-64.5t64.5-153.5-64.5-153.5-153.5-64.5q-90 0-154 64.5t-64 153.5q0 90 63 154t155 64zM518 179q58 0 99.5 41.5t41.5 99.5q-4 59-44 100t-97 41q-58 0-99.5-41.5t-41.5-99.5 41.5-99.5 99.5-41.5zM744 597q22 0 36.5-14t14.5-37-14.5-37-36.5-14-36.5 14-14.5 37 14.5 37 36.5 14z" />
<glyph unicode="&#xe0d2;" glyph-name="pinterest" d="M637 722q136-41 217.5-153t81.5-250q0-64-19-127-42-136-154-217.5t-249-81.5q-61 0-127 19 23 32 54 113l25 103q35-49 98-49 94 0 157.5 77t63.5 188v10q-4 100-77 168t-174 68h-9q-130 0-205-75t-75-180q0-52 23.5-96.5t64.5-70.5q15-7 15 5 0 19 10 49 0 4-5 9-30 45-30 99v9q4 75 55.5 126t122.5 51h24q67 0 114.5-48t47.5-115v-9q0-87-38-141.5t-95-54.5h-20q-21 3-33.5 19t-12.5 37q0 6 2 18 18 59 35 142v5q0 22-16 38t-38 16q-34 0-56.5-29.5t-22.5-73.5q0-35 15-64-39-177-49-211-4-27-4-62 0-34 4-61-122 48-196 157t-74 241q0 176 125 301.5t302 125.5q79 0 122-25z" />
<glyph unicode="&#xe0d3;" glyph-name="facebook" d="M512 744q177 0 302-125t125-302q0-159-103-278t-258-143v298h100l19 123h-119v80q0 29 16.5 48t53.5 19h54v105q-49 9-95 9-74 0-117.5-44t-43.5-123v-94h-109v-123h109v-298q-154 24-257.5 143t-103.5 278q0 177 125 302t302 125z" />
<glyph unicode="&#xe0d4;" glyph-name="twitter" horiz-adv-x="1000" d="M162 67h18q108 0 187 67-27 3-74.5 41.5t-63.5 58.5h54q-49 13-78.5 52t-29.5 89q42-8 58-16h9q-58 50-58 124 0 36 16 68 112-137 296-150v37q3 58 46 97.5t100 39.5q40 0 83-29 17-10 31-10 5 0 11 2l66 25q-18-43-54-79 12 2 36 8.5t31 8.5l4-5q-12-9-32-27t-26-23q-9-27-9-37 0-102-45-192-51-91-135-147t-186-65q-75-7-101-7-102 0-141 53z" />
<glyph unicode="&#xe0d5;" glyph-name="youtube" d="M930 495q9-68 9-145v-64q0-30-2.5-64.5t-4.5-53.5l-2-19q-8-59-34-85-39-34-85-34-53 0-128-2t-123-5l-48-2q-222 9-290 9-56 0-94 38-12 12-20.5 33.5t-11.5 37.5l-2 15q-9 68-9 136v64q0 32 2.5 67.5t4.5 54.5l2 19q8 60 34 85 39 34 85 34 53 0 128 2.5t123 4.5l48 2q179-9 299-9 51 0 85-34 12-11 20.5-32.5t11.5-36.5zM427 213l230 120-230 119v-239z" />
<glyph unicode="&#xe0d6;" glyph-name="no_bag" d="M469 661v-213h-85v277q0 10 6 16t15 6h214q9 0 15-6t6-16v-277h-85v213h-86zM725 107l-298 294h277q21 0 21-17v-277zM695-102l-64 64q1-1-1-2 9-11 9-24 0-18-12.5-30.5t-29.5-12.5q-18 0-30.5 12.5t-12.5 30.5q0 16 11 27.5t27 13.5q0 2 5 2h-277q-21 0-21 17v298l-201 197 60 64 597-598zM384-64q0 17 12.5 29.5t30.5 12.5q17 0 29.5-12.5t12.5-29.5q0-18-12.5-30.5t-29.5-12.5q-18 0-30.5 12.5t-12.5 30.5z" />
<glyph unicode="&#xe0d7;" glyph-name="taxi" d="M819 649l120-325v-409q0-22-22-22h-85q-21 0-21 22v42q0 22-22 22h-554q-22 0-22-22v-42q0-22-21-22h-85q-22 0-22 22v409l124 325q12 12 17 12h124q7 0 14 6.5t7 15.5v42q0 22 22 22h243q21 0 21-22v-42q0-10 6-16t15-6h120q9 0 21-12zM277 64q25 0 44.5 19.5t19.5 44.5-19.5 44.5-44.5 19.5-44.5-19.5-19.5-44.5 19.5-44.5 44.5-19.5zM747 64q25 0 44.5 19.5t19.5 44.5-19.5 44.5-44.5 19.5-44.5-19.5-19.5-44.5 19.5-44.5 44.5-19.5zM192 363h640l-81 213-482-4z" />
<glyph unicode="&#xe0d8;" glyph-name="train" d="M832 747q21 0 21-22v-725q0-21-21-21h-171l56-47q8-10 8-17 0-9-7.5-15.5t-17.5-6.5h-376q-10 0-17.5 6.5t-7.5 15.5q0 7 8 17l56 47h-171q-21 0-21 21v725q0 22 21 22h640zM363 107q25 0 44.5 19t19.5 45-19.5 45-44.5 19-44.5-19-19.5-45 19.5-45 44.5-19zM661 107q25 0 44.5 19t19.5 45-19.5 45-44.5 19-44.5-19-19.5-45 19.5-45 44.5-19zM768 384v213q0 10-6 16t-15 6h-470q-9 0-15-6t-6-16v-213q0-21 21-21h470q21 0 21 21z" />
<glyph unicode="&#xe0d9;" glyph-name="map" d="M661 626l278 78v-691l-277-77-299 91-278-91v690l278 78zM341 110v198l-170-47v-206l165 55h5zM341 396v213l-170-46v-214zM597 47v209l-170 43v-200zM597 342v213l-170 43v-214zM853 79v213l-170-47v-213zM853 378v213l-170-47v-213z" />
<glyph unicode="&#xe0da;" glyph-name="filter" d="M917 576q10 0 16-6t6-15v-43q0-21-22-21h-546q-10-19-29.5-31t-42.5-12-43 12-30 31h-119q-22 0-22 21v43q0 9 6 15t16 6h119q10 19 30 31t43 12 42.5-12 29.5-31h546zM917 149q22 0 22-21v-43q0-9-6-15t-16-6h-460q-10-19-30-31t-43-12-43 12-30 31h-204q-10 0-16 6t-6 15v43q0 21 22 21h204q10 19 30 31t43 12 43-12 30-31h460zM917 363q22 0 22-22v-42q0-22-22-22h-162q-10-19-30-30.5t-42-11.5q-23 0-43 11.5t-30 30.5h-503q-22 0-22 22v42q0 22 22 22h503q10 19 30 30.5t43 11.5q22 0 42-11.5t30-30.5h162z" />
<glyph unicode="&#xe0db;" glyph-name="duration" d="M401 132l-30 30q-6 6-6 15t6 15l94 94q0 2 2 8.5t2 8.5v209q0 21 22 21h42q22 0 22-21v-243q0-13-5-17l-119-120q-6-6-15-6t-15 6zM512 747q176 0 301.5-125.5t125.5-301.5-125.5-301.5-301.5-125.5-301.5 125.5-125.5 301.5q0 83 33 162.5t91 140.5l-81 81h213v-213l-72 68q-98-105-98-239 0-141 100-241t241-100 241 100 100 241-100 241-241 100v86z" />
<glyph unicode="&#xe0dc;" glyph-name="menu" d="M832 747q21 0 21-22v-810q0-22-21-22h-640q-21 0-21 22v810q0 22 21 22h640zM512 397v162q0 17-13 17h-21q-7 0-12-5.5t-5-11.5v-166h-26v166q0 6-5 11.5t-12 5.5h-21q-7 0-12-5.5t-5-11.5v-166h-26v166q0 6-5 11.5t-12 5.5h-21q-7 0-12-5.5t-5-11.5v-239q0-7 5-12t12-5h59v-226q0-7 5.5-12t12.5-5h25q7 0 12 5t5 12v226h60q6 0 11.5 5t5.5 12v77zM725 81v435q0 25-19 42.5t-45 17.5q-25 0-44.5-16.5t-19.5-38.5v-197q0-6 5.5-11.5t11.5-5.5h47v-226q0-6 5.5-11.5t11.5-5.5h30q7 0 12 5.5t5 11.5z" />
<glyph unicode="&#xe0dd;" glyph-name="casino" d="M855 381q39-39 39-95v-12q0-25-5-38-13-55-57-89.5t-100-34.5q-22 0-39 4l-132 39h-6q-9 0-15-7t-6-17q0-1 0.5-3t0.5-3l77-201q1-2 1-7 0-9-6-16t-16-7h-158q-10 0-16.5 7t-6.5 16q0 2 0.5 4t0.5 3l77 201q2 3 2 9 0 9-6.5 15t-15.5 6h-5l-133-39q-16-4-37-4-55 0-100.5 35t-58.5 89q-4 13-4 38 0 63 42 107l325 358q7 7 17 7t17-7z" />
<glyph unicode="&#xe0de;" glyph-name="castle" d="M163 450q-10 0-26 9-10 10-10 25 0 14 10 26l51 55 5 5q7 7 19 7 16 0 23-12l56-55q8-8 8-21 0-17-8.5-28t-21.5-11h-106zM760 450q-14 0-21 9-10 9-10 25t10 26l51 55 4 5q12 6 19 6 13 0 24-11l51-55q9-9 9-21 0-17-8.5-28t-21.5-11h-107zM436 578q-26 0-39 13-12 16-12 36t12 32l86 73q13 13 32 13 18 0 36-13l77-77q13-15 13-34 0-18-12-30.5t-29-12.5h-164zM875 407q22 0 22-21v-469q0-22-22-22h-256q-21 0-21 22v213q0 21-21 21h-128q-22 0-22-21v-213q0-22-21-22h-256q-21 0-21 22v469q0 21 21 21h128q21 0 21-21v-43q0-9 6-15t16-6h42q10 0 16 6t6 15v171q0 21 21 21h213q22 0 22-21v-171q0-21 21-21h43q9 0 15 6t6 15v43q0 21 21 21h128z" />
<glyph unicode="&#xe0df;" glyph-name="family" d="M278 663q0 36 25 61t60 25 60.5-25 25.5-61q0-35-25.5-60t-60.5-25-60 25-25 60zM517 476q9-23 34.5-110t25.5-91q7-13-18-21l-42-9q-6-3-14.5 1.5t-11.5 11.5l-34 120v-192l21-265q0-21-21-21l-47-5q-1 0-3-0.5t-4-0.5q-8 0-13 5.5t-5 13.5l-22 256-21-256q-8-18-26-18l-47 5q-21 0-21 21l26 269v200l-39-128q-5-14-18-14-3 0-7 2l-43 8q-10 3-15 9t-2 12q51 167 64 201 0 2 1 3t3 2.5 4 3.5q58 43 126 43 10 0 15-1 5 1 16 1 70 0 129-48 9 0 9-8zM726 224q-29 0-49 20.5t-24 52.5q3 29 23.5 48.5t49.5 19.5h4q29-3 48.5-23.5t19.5-49.5q-3-29-23.5-48.5t-48.5-19.5zM871 79q4-4 4-17l-21-21q-14-8-22 0l-29 29 25-98h-30v-68q0-13-12-13h-30q-13 0-13 13v68h-30v-68q0-13-13-13h-30q-12 0-12 13v68h-30l25 98-30-29q-14-9-21 0l-21 21q-3 3-3 8.5t3 8.5l77 85q4 5 12 13 24 18 54 18 48 0 74-35z" />
<glyph unicode="&#xe0e0;" glyph-name="luxury" d="M85 405h235q2 0 39-106.5t73-213.5l37-106zM555-21q2 8 29.5 90.5t60.5 183 50 152.5h244zM384 405h256l-128-388zM239 640q9-27 28.5-92t31.5-100h-214q52 64 154 192zM939 448h-214q12 35 31.5 100t28.5 92q102-128 154-192zM623 448h-222q19 28 55.5 83.5t55.5 82.5q19-27 55.5-83t55.5-83zM482 661q-22-32-62.5-93.5t-61.5-93.5q-6 18-64 187h188zM730 661q-22-59-64-187-21 32-61.5 93.5t-62.5 93.5h188z" />
<glyph unicode="&#xe0e1;" glyph-name="on_the_beach" d="M701 71q9 2 26 2 38 0 99-31t92-31v-107q-35 0-95 32.5t-94 32.5q-5 0-7-1-33 0-94-32t-98-32q-34 0-95 32.5t-91 32.5q-4 0-6-1-35 0-90-32t-91-32h-7v107q37 2 88 30t79 34q4 1 14 1 40 0 105-32.5t98-32.5q30 0 84.5 28t82.5 32zM317 677q-62-90-62-204 0-66 23-172l-166-68q-6 36-6 72 0 113 56 212.5t155 159.5zM462 370l-116-47q-20 85-20 165 0 132 50 214 76-18 151.5-85.5t134.5-165.5l-119-47 89-218q2-6 2-10 0-15-14-20l-39-17q-6-2-9-2-16 0-21 15zM722 476q-68 109-130.5 168t-159.5 80q50 12 100 12 105 0 200-51t156-141z" />
<glyph unicode="&#xe0e2;" glyph-name="onsen" d="M875 314q50-44 64-111 0-106-125.5-181t-301.5-75-301.5 75-125.5 181q9 73 64 111 0-90 106-154t257-64q152 0 257.5 63t105.5 155zM324 412q0 26-18 64.5t-20 54.5q-1 6-1 17 0 31 19.5 78.5t19.5 66.5h73q0-25-21.5-70.5t-21.5-74.5q0-22 21.5-67t21.5-74q0-24-20.5-70t-22.5-66h-68q2 25 20 71t18 70zM525 271l-68-4q2 25 22 70.5t20 69.5q0 25-18 65t-20 59q-1 6-1 17 0 30 17.5 75t17.5 64v6h72q0-25-21-70.5t-21-74.5q0-22 21-67t21-74q0-25-20-70.5t-22-65.5zM666 412q0 26-18.5 64.5t-20.5 54.5q0 3-0.5 8.5t-0.5 8.5q0 30 20 75t20 70h72q0-25-21-70.5t-21-74.5q0-22 21-67t21-74q0-25-20-70.5t-22-65.5h-69q2 23 20.5 66.5t18.5 66.5v8z" />
<glyph unicode="&#xe0e3;" glyph-name="outdoors" d="M935-58q4-4 4-10 0-8-6-13.5t-15-5.5h-810q-10 0-16.5 7t-6.5 16q0 1 0.5 3t0.5 3l133 261q3 6 11 8.5t14-0.5l103-42h17l119 51q3 3 8.5 3t8.5-3l124-51h13l136 42q15 0 22-13zM300 292q-19 7-19 26 0 2 2 8l102 312 21-43 22-42 72 162q6 12 19 12t20-12l204-397q4-5 4-11 0-8-4.5-13.5t-11.5-5.5l-52-17h-12l-137 60q-8 8-17 0l-137-52h-12z" />
<glyph unicode="&#xe0e4;" glyph-name="resort" d="M897 75q21 0 21-21v-128q0-22-21-22h-43q-21 0-21 22v42q0 10-6 16t-15 6h-384q-22 0-22-22v-42q0-22-21-22h-51q-9 0-15.5 5.5t-6.5 11.5v77q0 13-4 17l-128 128q-6 6-6 15t6 15l30 30q6 6 15 6t15-6l119-124q5-4 17-4h521zM317 698q-62-90-62-204 0-66 23-172l-166-68q-6 36-6 72 0 113 56 212.5t155 159.5zM462 391l-116-47q-20 85-20 165 0 132 50 214 76-18 151.5-85.5t134.5-165.5l-119-47 89-218q2-6 2-9 0-16-14-21l-39-17q-3-1-9-1-15 0-21 14zM722 497q-68 109-130.5 168t-159.5 80q50 12 100 12 105 0 200-50.5t156-140.5z" />
<glyph unicode="&#xe0e5;" glyph-name="romantic" d="M751 533q82-29 135-101t53-163q0-116-81.5-197t-196.5-81q-78 0-149 43-71-43-149-43-115 0-196.5 81t-81.5 197q0 113 77.5 193t184.5 80h7q80 0 149-43 21 15 60 30l-21 43q-4 9 4 25l43 43q9 9 17 9h98q13 0 17-5l47-42q8-18 4-26zM444 98q-60 72-60 171 0 101 60 179-49 17-81 17-80 0-136-56t-56-136 56-136 136-56q47 0 81 17zM512 149q43 56 43 120 0 63-43 119-43-56-43-119 0-64 43-120zM661 77q80 0 136 56t56 136-56 136-136 56q-47 0-81-17 60-78 60-175 0-103-60-175 49-17 81-17z" />
<glyph unicode="&#xe0e6;" glyph-name="ryokan" d="M939 452q1-2 1-7 0-11-10-23l-111-85q-5-5-12-5-13 0-18 9l-102 145v-64q0-9-6-15t-15-6h-158q-21 0-21 21 0 8 4 13l153 269h-42l-77-115-56 115h-42l72-166-68-128q-7-9-17-9h-51q-10 0-16 6t-6 15v64l-102-140q-7-9-19-9-7 0-11 4l-111 86q-9 3-10.5 11t2.5 14l179 282q7 13 21 13h448q8 0 17-9zM661 192q10 0 16-6t6-15v-256q0-22-22-22h-298q-22 0-22 22v256q0 8 7.5 14.5t14.5 6.5h298zM341 265v55h342v-55h-342z" />
<glyph unicode="&#xe0e7;" glyph-name="ski_in_ski_out" d="M672 640q0 37 26.5 63.5t63.5 26.5 63-26.5 26-63.5-26-63.5-63-26.5-63.5 26.5-26.5 63.5zM915 38q22 0 22-21v-43q0-26-20-45t-49-19h-785v86h299l136 162q7 6 7 15 0 8-7 15-95 82-123 149h-261q-9 0-15.5 7t-6.5 17q0 7 5 14l43 43q2 0 8.5 2t8.5 2h226q21 0 39 17 87 105 106 124 28 21 62 21 49 0 79-42l124-115h128q0-39-30-69-36-42-88-42-42 0-74 25l-26 26q-13 13-30 13h-21q-15 0-30-13l-64-64 85-85q16-19 16-43t-16-43l-59-60q-13-10-13-28 0-19 13.5-33.5t33.5-14.5h213v21q0 21 22 21h42z" />
<glyph unicode="&#xe0e8;" glyph-name="spa" d="M352 419q-13 6-13 22 21 173 154 298 10 7 21 7 10 0 17-7 130-123 149-298 0-8-12-22-56-27-141-94-6-6-17-6t-17 6q-60 54-141 94zM941 385v-26q0-66-12.5-126t-43.5-119-78.5-103.5-122.5-75.5-170-41h-4q-196 13-311.5 137t-115.5 333v21q0 21 21 21 116-3 218-58t171-146q6-11 19-11 7 0 19 6 68 93 169.5 148t218.5 61q8 0 15-6t7-15z" />
<glyph unicode="&#xe0e9;" glyph-name="air_conditioning" d="M939 363v-86h-180l141-140-59-60-201 200h-85v-85l192-196-60-60-137 137v-180h-85v175l-136-136-60 59 200 201v85h-85l-196-196-60 60 137 136h-180v86h180l-141 136 59 60 201-196h85v85l-200 196 64 60 136-137v180h86v-180l136 137 64-55-200-201v-85h85l196 196 60-60-137-136h180z" />
<glyph unicode="&#xe0ea;" glyph-name="dry_cleaning" d="M930 218q9-11 9-17v-94q0-22-22-22h-234v-149q0-21-22-21h-298q-22 0-22 21v149h-234q-22 0-22 22v94q0 6 9 17l375 226v111h43q30 0 43 25 2 10 2 14 0 30-28 42-4 2-14 2-31 0-41-28-8-13-22-13h-47q-7 0-12.5 5.5t-5.5 13.5q0 1 0.5 3.5t0.5 3.5q14 67 81 94 20 8 44 8 39 0 71.5-23t46.5-62q9-21 9-44 0-38-23-70.5t-62-47.5v-34zM683 171h145l-316 196-307-196h136v21q0 21 22 21h298q22 0 22-21v-21z" />
<glyph unicode="&#xe0eb;" glyph-name="internet" d="M681 150q-16-64-60-153 37 12 77 38l-56-119q-73-22-132-22-72 0-162 30-121 50-192 159t-71 237q0 86 32 163 50 121 159 192t237 71q84 0 163-33 121-50 192-158.5t71-236.5q0-85-32-164l-56 120q4 17 4 47 0 40-12 85h-145q0-15 2-42.5t2-42.5q0-56-4-85h98l-43-86h-72zM804 492q-54 103-183 153 44-89 60-153h123zM510 662q-60-97-81-170h162q-21 81-81 170zM181 236h145q0 14-2 42t-2 43q0 55 4 85h-145q-9-42-9-85 0-44 9-85zM215 150q57-105 184-153-42 82-60 153h-124zM339 492q18 71 60 153-121-47-184-153h124zM510-20q61 98 81 170h-162q21-81 81-170zM412 236h196q6 41 13 85 0 31-9 85h-200q-9-54-9-85 0-33 9-85zM723-8l107 222q89-183 106-222-57 18-81 26v-124h-51v124q-15-5-40.5-13t-40.5-13z" />
<glyph unicode="&#xe0ec;" glyph-name="multilingual" d="M548 364h-13q-25 0-44.5-19.5t-19.5-44.5h-124q19-68 60-128 41 59 64 124v-180q-42-8-64-8-131 0-225.5 94.5t-94.5 225.5 94.5 225.5 225.5 94.5 225.5-94.5 94.5-225.5q0-26-9-64h-64q9 47 9 64 0 24-9 64h-106q4-22 4-64 0-43-4-64zM407 679q-44-64-60-128h120q-19 68-60 128zM326 666q-92-26-141-110h94q26 76 47 110zM159 364h107q-4 21-4 64 0 10 2 31.5t2 32.5h-107q-8-44-8-64 0-22 8-64zM185 300q42-79 137-116-36 83-43 116h-94zM479 364q0 10 2.5 31.5t2.5 32.5q0 42-5 64h-149q0-11-2-32.5t-2-31.5q0-11 2-32.5t2-31.5h149zM629 556q-47 80-137 115 35-79 43-115h94zM919-3h-73q-8 0-12-5l-137-98q-6-3-16 0t-10 9v72q0 22-21 22h-119q-22 0-22 21v277q0 22 22 22h384q9 0 15-6t6-16v-277q1-2 1-5 0-6-5.5-11t-12.5-5z" />
<glyph unicode="&#xe0ed;" glyph-name="conference_center" d="M137 399q0 21 14.5 36t36.5 15q21 0 36-15t15-36-15-36-36-15q-22 0-36.5 15t-14.5 36zM294 271v-34q0-21-21-21h-166q-22 0-22 21v34q0 13 5 13 33 47 98 47 63 0 102-47 4-4 4-13zM461 693q0 22 15 37t36 15 36-15 15-37q0-21-15-36t-36-15-36 15-15 36zM429 510q-22 0-22 21v34q0 13 5 13 33 47 98 47 63 0 102-47 5-4 5-13v-34q0-21-22-21h-166zM777 399q0 21 14.5 36t36.5 15q21 0 36-15t15-36-15-36-36-15q-22 0-36.5 15t-14.5 36zM934 284q5-4 5-13v-34q0-22-22-22h-170q-22 0-22 22v34q0 8 5 13 36 47 89 47h13q63 0 102-47zM461 79q0 21 15 36t36 15 36-15 15-36-15-36-36-15-36 15-15 36zM510 11q63 0 102-47 5-5 5-13v-34q0-22-22-22h-166q-22 0-22 22v34q0 8 5 13 39 47 98 47zM672 472l64-470h-90l-51 384h-170l-52-384h-85l60 470h324z" />
<glyph unicode="&#xe0ee;" glyph-name="audio" d="M521 725q157-3 266-115t109-269v-405q0-21-21-21h-214q-21 0-21 21v299q0 9 6 15t15 6h150v94q-4 122-90 206t-205 84h-8q-123-6-209-94t-86-210v-80h150q9 0 15-6t6-15v-299q0-21-21-21h-214q-21 0-21 21v393q0 163 115 279.5t278 116.5z" />
<glyph unicode="&#xe0ef;" glyph-name="beverage" d="M725 474l-81-568q0-13-17-13h-230q-11 0-17 13l-81 568q0 6 5 11.5t12 5.5h394q15 0 15-17zM704 619q21 0 21-22v-42q0-22-21-22h-384q-21 0-21 22v42q0 22 21 22h149v42h-55q-13 0-21.5 6t-8.5 16v42q0 10 8.5 16t21.5 6h115q10 0 18-6.5t8-15.5v-106h149z" />
<glyph unicode="&#xe0f0;" glyph-name="photo_id" d="M917 661q8 0 15-6t7-15v-640q0-21-22-21h-810q-22 0-22 21v640q0 21 22 21h810zM853 64v512h-682v-512h682zM555 405v86h213v-86h-213zM555 277v86h213v-86h-213zM555 149v86h213v-86h-213zM320 427q0 26 19 45t45 19 45-19 19-45q0-27-19-45.5t-45-18.5-45 18.5-19 45.5zM277 149q-9 0-15 6t-6 16v76q0 9 4 13 49 61 125 61 53 0 97-35l26-26q4-4 4-13v-76q0-10-6-16t-15-6h-214z" />
<glyph unicode="&#xe0f1;" glyph-name="top_three" d="M384 513v128h555v-128h-555zM128 542v5l-43 51q0 8 5 8l59 17 5 5 34 51q0 3 4 3t4-3l39-56 59-17q5 0 5-8l-43-51v-5l4-64q0-8-8-8l-60 25h-4l-56-25q-8 0-8 8zM384 257v128h555v-128h-555zM235 367l59-12q9-9 5-13l-43-51v-5l4-64q0-8-8-8l-60 25h-4l-56-25q-8 0-8 8l4 64v5l-43 51v4l60 17 4 4 34 56q7 6 13 0zM384 1v128h555v-128h-555zM235 111l59-12q9-9 5-13l-43-51v-5l4-64q0-8-8-8l-60 25h-4l-56-25q-8 0-8 8l4 64v5l-43 51v4l60 17 4 4 34 56q7 6 13 0z" />
<glyph unicode="&#xe0f2;" glyph-name="voucher" d="M747 725q8 0 14.5-7.5t6.5-14.5v-712q0-10-9-17l-59-51q-4-7-11.5-7t-14.5 7l-68 55h-4l-73-60q-12-6-26 0l-72 60h-4l-73-60q-12-6-25 0l-64 52q-9 7-9 17v716q0 7 6.5 14.5t14.5 7.5h470zM597 209v85h-256v-85h256zM683 379v86h-342v-86h342z" />
<glyph unicode="&#xe0f3;" glyph-name="bag" d="M469 661v-213h-85v277q0 10 6 16t15 6h214q9 0 15-6t6-16v-277h-85v213h-86zM385-64q0 17 12.5 29.5t29.5 12.5q18 0 30.5-12.5t12.5-29.5q0-18-12.5-30.5t-30.5-12.5q-17 0-29.5 12.5t-12.5 30.5zM555-64q0 17 12.5 29.5t29.5 12.5q18 0 30.5-12.5t12.5-29.5q0-18-12.5-30.5t-30.5-12.5q-17 0-29.5 12.5t-12.5 30.5zM704 401q21 0 21-17v-388q0-17-21-17h-384q-21 0-21 17v388q0 17 21 17h384z" />
<glyph unicode="&#xe0f4;" glyph-name="television" d="M474 239q-8-5-18-5-12 0-20.5 7.5t-8.5 18.5v205q0 12 9 19.5t21 7.5q10 0 17-6l153-102q13-9 13-23 0-13-13-20zM917 704q10 0 16-6t6-15v-640q0-22-22-22h-234v-64q0-9-6-15t-16-6h-298q-10 0-16 6t-6 15v64h-234q-22 0-22 22v640q0 9 6 15t16 6h810zM853 107v512h-682v-512h682z" />
<glyph unicode="&#xe0f5;" glyph-name="power" d="M832 427q21 0 21-22v-98q0-9-8-17l-162-153v-201q0-21-22-21h-298q-22 0-22 21v201l-162 153q-8 8-8 17v98q0 22 21 22h107v277q0 21 21 21h85q22 0 22-21v-277h170v277q0 21 22 21h85q21 0 21-21v-277h107z" />
<glyph unicode="&#xe0f6;" glyph-name="usb" d="M640 533h171v-170h-43v-171h-213v-137q19-9 30.5-29t11.5-43q0-35-25-60t-60-25-60 25-25 60q0 23 11.5 43t30.5 29v52h-213v179q-19 10-31 30t-12 42q0 35 25.5 60.5t60.5 25.5 60-25.5 25-60.5q0-22-12-42t-31-30v-94h128v384h-85l128 171 128-171h-85v-299h128v86h-43v170z" />
<glyph unicode="&#xe0f7;" glyph-name="seat_regular" d="M747 281q9 0 15-6t6-16v-85q0-21-21-21h-171q-21 0-21-22v-51q0-11 12-17l73-38v-43h-256v43l72 38q13 6 13 17v51q0 22-21 22h-73q-15 0-21 13l-175 418q-1 3-1 9 0 15 14 21l81 34q2 1 7 1 13 0 19-14l145-341q6-13 21-13h282z" />
<glyph unicode="&#xe0f8;" glyph-name="seat_angled_bed" d="M832 281q21 0 21-22v-85q0-21-21-21h-256q-21 0-21-22v-51q0-11 12-17l73-38v-43h-256v43l73 38q12 6 12 17v51q0 22-21 22h-21q-3 0-7 2t-6 2l-312 316q-6 6-6 15 0 7 6 15l60 59q6 7 15 7t15-7l273-277q2 0 8.5-2t8.5-2h350z" />
<glyph unicode="&#xe0f9;" glyph-name="seat_flat_bed" d="M917 281q22 0 22-22v-85q0-21-22-21h-341q-21 0-21-22v-51q0-11 12-17l73-38v-43h-256v43l73 38q12 6 12 17v51q0 22-21 22h-341q-22 0-22 21v85q0 22 22 22h810z" />
<glyph unicode="&#xe0fa;" glyph-name="eye" d="M523 619q138 0 253-83.5t163-215.5q-48-134-162.5-216.5t-253.5-82.5h-22q-143 0-257 82t-159 217q48 132 163 215.5t253 83.5h22zM523 94q108 0 199.5 61.5t135.5 164.5q-41 103-132.5 164.5t-202.5 61.5h-22q-111 0-202.5-61.5t-132.5-164.5q41-103 132.5-164.5t202.5-61.5h22zM510 503q77 0 132-54t55-133q0-77-55-132.5t-132-55.5-132 55.5-55 132.5 55.5 132 131.5 55zM510 205q46 0 78 30.5t32 73.5v7q0 44-33 77.5t-77 33.5q-45 0-77.5-33t-32.5-78 32.5-78 77.5-33z" />
<glyph unicode="&#xe0fb;" glyph-name="eye_fill" d="M510 427q44 0 77-33.5t33-77.5v-7q0-43-32-73.5t-78-30.5q-45 0-78 33t-33 78q0 44 33 77.5t78 33.5zM523 619q138 0 253-83.5t163-215.5q-48-134-162.5-216.5t-253.5-82.5h-22q-143 0-257 82t-159 217q48 132 163 215.5t253 83.5h22zM510 128q77 0 132 55.5t55 132.5q0 79-55 133t-132 54q-76 0-131.5-55t-55.5-132 55-132.5 132-55.5z" />
<glyph unicode="&#xe0fc;" glyph-name="accessible" d="M727 576q-35 0-60 25t-25 60 25 60.5 60 25.5 60-25.5 25-60.5-25-60-60-25zM834 363q18 0 18-20 0-1-0.5-4.5t-0.5-5.5l-30-303q-9-17-26-17l-43 4q-17 8-17 26l22 209q0 10-6.5 17.5t-15.5 7.5h-85q34-62 34-128 0-105-75-180.5t-181-75.5-181 75.5-75 180.5q0 86 51.5 153.5t132.5 90.5l145 153q6 6 6 15t-6 15l-56 51q-11 13-25 4l-90-59q-4-5-11-5-8 0-19 9l-25 34q-3 7-3 14 0 12 11 16l150 94q14 7 25-4l222-209q9-5 9-18 0-8-5-12l-119-124zM428-21q70 0 120.5 49t50.5 117q0 75-60 128-6 6-12 10t-14 8.5-12 7.5q-10 6-47 17-9 4-21 4h-5q-70 0-120-50t-50-121q0-70 50-120t120-50z" />
<glyph unicode="&#xe0fd;" glyph-name="shopping_bag_fill" d="M679 561h208v-543q0-52-36.5-88.5t-88.5-36.5h-500q-52 0-88.5 36.5t-36.5 88.5v543h208v19q0 69 49 118t118 49 118-49 49-118v-19zM429 580v-19h166v19q0 35-24.5 59t-58.5 24-58.5-24-24.5-59zM804 18v459h-125v-125h-84v125h-166v-125h-84v125h-125v-459q0-17 12.5-29t29.5-12h500q17 0 29.5 12t12.5 29z" />
<glyph unicode="&#xe0fe;" glyph-name="classes_workshops" d="M736 239q2 1 7 1 9 0 16-6t7-16v-124q0-11-13-17l-235-120q-8-4-17 0l-234 120q-13 6-13 17v124q0 10 7 16t16 6q5 0 7-1l217-107q9-4 17 0zM924 469q2-1 5.5-3.5t4.5-3 3-2 2.5-3 1-4 0.5-5.5v-341q0-22-22-22h-42q-22 0-22 22v281l-332-170q-11-6-22 0l-405 209q-13 6-13 21t13 21l401 214q11 5 21 0z" />
<glyph unicode="&#xe0ff;" glyph-name="fun_games" d="M662 470q8 0 14.5-6.5t6.5-14.5l4-147q0-1 1-3v-2l51-184q1-2 1-6 0-8-6.5-14.5t-14.5-6.5h-413q-4 0-6 1-15 3-15 20 0 4 1 6l51 184v5l4 147q0 8 6.5 14.5t14.5 6.5h300zM800-84q-24 0-184-0.5t-246-0.5q-116 0-143 1-32 0-44 9t-12 33v44q0 23 12 32t42 9h576q28 0 40-9t12-30v-48q0-22-12-31t-41-9zM640 725h42q9 0 15.5-6t6.5-15v-170q0-9-6.5-15.5t-15.5-6.5h-341q-8 0-14.5 6.5t-6.5 15.5v170q0 9 6.5 15t14.5 6h43q9 0 15-6t6-15v-64h43v64q0 9 6.5 15t14.5 6h86q8 0 14.5-6t6.5-15v-64h43v64q0 9 6 15t15 6z" />
<glyph unicode="&#xe100;" glyph-name="museums" d="M213 128v256h86v-256h-86zM384 128v256h85v-256h-85zM555 128v256h85v-256h-85zM725 128v256h86v-256h-86zM149 427q-8 0-14.5 6t-6.5 15v85q0 9 6.5 15.5t14.5 6.5h107v64q0 8 6.5 14.5t14.5 6.5h65q19 25 44 44 56 41 126 41 106 0 170-85h65q8 0 14.5-6.5t6.5-14.5v-64h107q8 0 14.5-6.5t6.5-15.5v-85q0-9-6.5-15t-14.5-6h-726zM917 0q9 0 15.5-6.5t6.5-14.5v-43q0-9-6.5-15t-15.5-6h-810q-9 0-15.5 6t-6.5 15v43q0 8 6.5 14.5t15.5 6.5h21v64q0 9 6.5 15t14.5 6h726q8 0 14.5-6t6.5-15v-64h21z" />
<glyph unicode="&#xe101;" glyph-name="theater_concerts" d="M511 684q0 9 6 15t15 6h214q21 0 21-21v-128q0-22-21-22h-150v-422q1-3 1-9 0-61-39.5-107.5t-101.5-58.5q-18-2-27-2-54 0-99 31t-62 82q-11 27-11 60 0 53 31 96.5t82 61.5q32 10 58 10 45 0 83-23v431z" />
<glyph unicode="&#xe102;" glyph-name="zoo_aquarium" d="M870 115q4-8 4-25-5-23-30-23-1 0-3.5 0.5t-4.5 0.5l-60 22q-11-67-60-137-12-12 0-26l30-34h-469l21 34q8 14 0 26-42 53-55 137l-56-17q-6-8-21 0-16 11-16 28 0 6 3 14l90 179q20 99 81 180 2 0 3 23.5t1 46.5v23q0 67 45 119t113 65q8 1 25 1 70 0 122.5-44.5t61.5-114.5l68-30q13-6 13-17 0-20-17-25l-64-13q0-22 4-34 57-76 77-175zM601 610q0 21-15 36t-36 15-36-15-15-36 15-36 36-15 36 15 15 36zM640 115v192q-7 48-43.5 81.5t-84.5 33.5-85-33.5-43-81.5v-192q6-48 43-81.5t85-33.5 84.5 33.5 43.5 81.5z" />
<glyph unicode="&#xe103;" glyph-name="food_drink" d="M629 0l-74 448h384l-77-458q-3-23-19.5-38t-38.5-16h-105q-26 1-46 19t-24 45zM917 576q9 0 15.5-6t6.5-15v-64h-384v64q0 9 6 15t15 6h149v43h-64q-8 0-14.5 6t-6.5 15v43q0 9 6.5 15t14.5 6h150v-128h106zM85 107v94h427v-94h-427zM299 363h14q64 0 118-35t81-93h-427q27 58 81 93t118 35h15zM299-64h-15q-64 0-118 35t-81 93h427q-27-58-81-93t-118-35h-14z" />
<glyph unicode="&#xe104;" glyph-name="alcohol" d="M898 555q9 0 15-7t6-15v-384q0-21-21-21h-107v-107q0-21-21-21h-299q-9 0-15 6t-6 15v598q0 9 6 15t15 6h299q21 0 21-21v-64h107zM749 512v85h-256v-85h256zM834 213v256h-43v-256h43zM343 640q22 0 22-26v-192q0-41-23.5-73.5t-62.5-45.5v-209q0-6 5-11.5t8-5.5q69-30 69-77h-256q0 25 20 46t52 31q17 8 17 21v209q-38 13-61.5 45.5t-23.5 74.5v192q0 21 21 21h213zM322 512v85h-171v-85h171z" />
<glyph unicode="&#xe105;" glyph-name="ambience" d="M918 19q9 0 15.5-7t6.5-16q0-7-5-15l-94-86q-2 0-8.5-2t-8.5-2h-623q-13 0-17 4l-94 86q-6 8-6 17t6.5 15 16.5 6h277v384h256v-384h278zM512 493q-35 0-60 25t-25 60q0 17 9 26l59 132q7 13 19 13 13 0 20-13l59-132q5-9 5-26 0-35-25.5-60t-60.5-25z" />
<glyph unicode="&#xe106;" glyph-name="buffet" d="M546 668q61-7 110.5-45.5t68.5-95.5h-426q18 56 66.5 95t103.5 46v4q0 16 11.5 27t27.5 11 27-11 11-27v-4zM917 271q10 0 16-6t6-15v-192q-3-53-42.5-90.5t-91.5-37.5h-7q-85 0-124 64-1 1-2.5 3.5t-2.5 3.5-3 1q-6 2-9 2-16 0-21-10-43-64-124-64-85 0-124 64-1 1-2.5 3.5t-2.5 3.5-3 1q-6 2-9 2-16 0-21-10-43-64-124-64h-7q-52 0-91.5 37.5t-42.5 90.5v192q0 21 22 21h196l51 128h-55v85h426v-85h-72l60-128h204zM397 271h226l-60 128h-115z" />
<glyph unicode="&#xe107;" glyph-name="delivery" d="M934 303q5-4 5-13v-153q0-22-22-22h-38q-7 0-14-5.5t-7-11.5q-7-42-39.5-70t-76.5-28-76 28-39 70q0 6-7 11.5t-14 5.5h-192q-7 0-14-5.5t-7-11.5q-7-41-40.5-69.5t-75.5-28.5-74.5 28.5-36.5 69.5q0 6-7 11.5t-14 5.5h-38q-22 0-22 22v482q0 7 6.5 14t15.5 7h554q10 0 16-6t6-15v-128q0-22 25-22h94q3 0 8-2.5t5-5.5zM277 55q25 0 42.5 18.5t17.5 41.5q0 26-17.5 43t-42.5 17-42-17-17-43 17-43 42-17zM418 337q18 36 18 70 0 56-39.5 95.5t-95.5 39.5q-37 0-71-17-26-11-51-51-15-35-15-66 0-56 40.5-97t97.5-41q33 0 65 16 25 10 51 51zM747 55q22 0 39 18.5t20 41.5q0 26-17 43t-42 17-42.5-17-17.5-43 17.5-43 42.5-17zM324 503q9 0 9-8v-102l-4-5-47-47h-13l-13 17q-6 7 0 13l38 39q5 0 5 4v81q0 8 8 8h17z" />
<glyph unicode="&#xe108;" glyph-name="directions" d="M542 734l384-384q13-15 13-30t-13-30l-384-384q-15-13-30-13t-30 13l-384 384q-13 15-13 30t13 30l384 384q15 13 30 13t30-13zM597 213l150 150-150 149v-107h-213q-19 0-31-11.5t-12-30.5v-171h86v128h170v-107z" />
<glyph unicode="&#xe109;" glyph-name="highchair" d="M339 448v235q0 9 6 15t16 6h298q10 0 16-6t6-15v-235h-342zM254 363h516v-64q0-22-21-22h-90l60-341h-85l-47 256h-158l-47-256h-85l59 341h-81q-21 0-21 22v64z" />
<glyph unicode="&#xe10a;" glyph-name="outdoor_seating" d="M448 740q-82-53-119.5-132t-59.5-201h-184q29 132 129.5 224.5t233.5 108.5zM687 403l-132 4v-426h64q9 0 15-6t6-16v-42q0-10-6-16t-15-6h-214q-9 0-15 6t-6 16v42q0 19 15 19 1 0 3-0.5t3-0.5h64v426h-132q16 106 64 200t111 142q67-48 113-138.5t62-203.5zM576 740q134-16 234-109t129-228h-184q-22 122-59.5 201.5t-119.5 135.5z" />
<glyph unicode="&#xe10b;" glyph-name="private_event" d="M196 382l51 298 252-42-51-299q-7-41-37.5-72.5t-69.5-38.5q-30-166-30-170 0-2 2-4.5t6-5 5-3.5q56-36 56-81v-9l-252 47q6 50 81 64 13 0 17 4l30 171q-27 16-44 49.5t-17 69.5q0 15 1 22zM282 629l-17-85 170-30 13 85zM896 2l-256-47q-2 10-2 14 0 43 57 76 13 10 13 13l-30 170q-39 7-69.5 38.5t-36.5 72.5l-51 299 251 47 51-299q4-12 4-29 0-35-17-65.5t-46-46.5q25-166 30-170 7-9 17-9 31-6 54.5-23.5t30.5-40.5zM589 514l166 30-13 85-166-30z" />
<glyph unicode="&#xe10c;" glyph-name="seating" d="M768 235v-150q0-9-6-15t-15-6h-22v-171h-85v171h-256v-171h-85v171h-22q-9 0-15 6t-6 15v150h512zM341 320v427h342v-427h-342z" />
<glyph unicode="&#xe10d;" glyph-name="street_food" d="M597 747q142 0 242-31t100-76v-640q0-21-22-21h-21q0-35-25-60.5t-60-25.5-60.5 25.5-25.5 60.5h-298v-64q0-22-22-22h-42q-22 0-22 22v64h-64q-21 0-21 21v192h-149q-10 0-16 6t-6 15v43q0 21 22 21h746v256q-6-35-29.5-58.5t-55.5-26.5h-9q-39 0-67.5 23t-34.5 62h-4q-7-35-30.5-58.5t-55.5-26.5h-9q-39 0-67 23t-34 62h-5q-6-35-34.5-60t-63.5-25q-41 0-69.5 31t-28.5 76v85q0 45 100 76t241 31z" />
<glyph unicode="&#xe10e;" glyph-name="takeout" d="M171 405v86h128v-86h-128zM85 235v85h214v-85h-214zM171 64v85h128v-85h-128zM853 491h86v-512h-512v512h85q0 70 50 120t121 50 120.5-50 49.5-120zM683 576q-35 0-60.5-25t-25.5-60h171q0 35-25 60t-60 25z" />
<glyph unicode="&#xe10f;" glyph-name="waitstaff" d="M640 267h213q0-23-34-38.5t-70-22.5-36-8q-75-89-111-157-13-22-39-22-7 0-21 4-6 2-33.5 31t-52.5 57l-25 28v-226h-346v396q9 44 43 64 71 43 137 43 90 0 149-47 15-12 53.5-64t68.5-98l31-47zM273 727q55 0 93.5-40t38.5-96-38.5-96.5-93.5-40.5-93.5 40.5-38.5 96.5 38.5 96 93.5 40zM576 399h341q10 0 16-6t6-15v-47q0-22-22-22h-341q-21 0-21 22v47q0 21 21 21z" />
<glyph unicode="&#xe110;" glyph-name="wine_beer" d="M576 512q85-46 85-107v-490q0-9-7.5-15.5t-17.5-6.5h-248q-10 0-17.5 6.5t-7.5 15.5v490q0 59 81 107 13 0 13 17v196q0 9 7.5 15.5t17.5 6.5h56q9 0 17-6.5t8-15.5v-196q0-11 13-17z" />
<glyph unicode="&#xe111;" glyph-name="hospital" d="M107 747h810q22 0 22-22v-810q0-22-22-22h-810q-22 0-22 22v810q0 22 22 22zM768 235v170h-171v171h-170v-171h-171v-170h171v-171h170v171h171z" />
<glyph unicode="&#xe112;" glyph-name="office" d="M725 747q9 0 15.5-8t6.5-18v-802q0-10-6.5-18t-15.5-8h-426q-22 0-22 22v806q0 10 6.5 18t15.5 8h426zM491 21v86h-86v-86h86zM491 192v85h-86v-85h86zM491 363v85h-86v-85h86zM619 21v86h-86v-86h86zM619 192v85h-86v-85h86zM619 363v85h-86v-85h86zM491 533v86h-86v-86h86zM619 533v86h-86v-86h86z" />
<glyph unicode="&#xe113;" glyph-name="doors" d="M939 725v-810q0-22-22-22h-810q-22 0-22 22v482q0 2 2.5 8.5t2.5 8.5l328 328q2 0 8.5 2.5t8.5 2.5h482q22 0 22-22zM213 405h640v256h-384zM725 320v-85h128v85h-128z" />
<glyph unicode="&#xe114;" glyph-name="fuel" d="M772 610l167-162v-405q0-22-22-22h-213q-21 0-21 22v320h-86v-384h22q9 0 15-6t6-16v-64h-555v64q0 22 22 22h21v746q0 10 6 16t15 6h427q21 0 21-22v-277h150q9 0 15-6t6-15v-320h85v307l-140 141q-7 3-7 12.5t7 12.5l29 30q9 7 15 7 8 0 15-7zM512 448v213h-299v-213h299z" />
<glyph unicode="&#xe115;" glyph-name="transmission" d="M853 747q35 0 60.5-25t25.5-61q0-47-43-73v-289q0-22-21-22h-320v-225q43-23 43-73 0-36-25-61t-60-25-60 25-25 61q0 48 42 73v225h-256v-225q43-24 43-73 0-36-25-61t-60-25-60.5 25-25.5 61q0 48 42 73v535q-43 26-43 74 0 35 25.5 60t60.5 25 60-25 25-60q0-49-42-74v-224h256v225q-42 25-42 73 0 35 25 60t60 25 60-25 25-60q0-51-43-74v-224h256v225q-43 23-43 73 0 36 25 61t60 25z" />
<glyph unicode="&#xe116;" glyph-name="gallery_dynamic" d="M107 747h512q8 0 14.5-6.5t6.5-15.5v-341q0-9-6.5-15t-14.5-6h-512q-9 0-15.5 6t-6.5 15v341q0 9 6.5 15.5t15.5 6.5zM107 277h170q9 0 15.5-6t6.5-15v-341q0-9-6.5-15.5t-15.5-6.5h-170q-9 0-15.5 6.5t-6.5 15.5v341q0 9 6.5 15t15.5 6zM747 747h170q9 0 15.5-6.5t6.5-15.5v-341q0-9-6.5-15t-15.5-6h-170q-9 0-15.5 6t-6.5 15v341q0 9 6.5 15.5t15.5 6.5zM405 277h512q9 0 15.5-6t6.5-15v-341q0-9-6.5-15.5t-15.5-6.5h-512q-8 0-14.5 6.5t-6.5 15.5v341q0 9 6.5 15t14.5 6z" />
<glyph unicode="&#xe117;" glyph-name="weather_clear_night" d="M350 500q-26-57-27-120 2-140 100-239t237-102q-94-103-233-103-119 0-190 53.5t-109 155.5q-12 38-12 79v6q5 100 70.5 175.5t163.5 94.5zM743 713l50-101 112-16-81-79 19-110-100 52-99-52 19 110-81 79 112 16zM560 355l33-67 75-12-54-52 13-75-67 35-67-35 13 75-55 52 75 12z" />
<glyph unicode="&#xe118;" glyph-name="weather_cloud" d="M832 320q44 0 75.5-31.5t31.5-75.5q0-38-24-68t-62-38h-597q-71 0-121 50t-50 120q0 71 50 121t121 50q19 0 47-7 10 47 44 82t81 47q23 5 41 5 58 0 105-36t61-94q13 3 26 3h2q56 0 98-36.5t50-91.5q11 1 21 0z" />
<glyph unicode="&#xe119;" glyph-name="weather_cloudy" d="M809 317l23 3q44 0 75.5-31.5t31.5-75.5q0-38-24-68t-62-38h-597q-71 0-121 50t-50 120q0 71 50 121t121 50q20 0 46-7 10 47 44.5 82t81.5 47q23 5 41 5 58 0 104.5-36t60.5-94q14 3 27 3 56 0 98-37.5t50-93.5zM469 640q-42 0-81-15v10q13 47 51.5 77t87.5 30h11q47 0 85-27.5t52-72.5q12 2 23 0h7q44 0 78-28t43-71h27q34 0 59-23t27-57q-2-32-22.5-55t-51.5-27h-7l-3 3q-23 54-70.5 88.5t-106.5 39.5q-29 59-85.5 93.5t-122.5 34.5h-1z" />
<glyph unicode="&#xe11a;" glyph-name="weather_cloudy_night" d="M832 277q44 0 75.5-31t31.5-75q0-39-24-69t-62-38h-597q-71 0-121 50t-50 121q0 70 50 120t121 50q25 0 46-7 10 48 44.5 83t81.5 46q18 5 41 5 58 0 104.5-36t60.5-93q18 2 27 2 56 0 98-37t50-93q14 2 23 2zM678 468q-27 53-76 88v20q1 58 38.5 102.5t93.5 58.5q-14-36-14-71 0-82 60.5-139.5t141.5-57.5h1q-44-51-112-60-56 54-133 59z" />
<glyph unicode="&#xe11b;" glyph-name="weather_partly_cloudy" d="M832 320q44 0 75.5-31.5t31.5-75.5q0-38-24-68t-62-38h-597q-71 0-121 50t-50 120q0 71 50 121t121 50q19 0 47-7 10 47 44 82t81 47q23 5 41 5 58 0 105-36t61-94q13 3 26 3 56 0 98-37.5t50-93.5q12 3 23 3zM529 608l-36 36q-9 9 0 17 18 19 19 20 9 7 17-1l36-36q9-9 0-18l-18-18q-9-9-18 0zM821 606l-18 18q-9 9 0 18l36 36q8 8 18 0l18-19q9-9 0-17-37-36-37-37-9-7-17 1zM875 516h53q11 0 11-13v-27q-2-11-13-11h-53q-13 2-11 13v27q0 13 13 11zM695 670h-27q-11 0-11 13v53q2 11 13 11h27q13-2 11-13v-53q0-13-13-11zM678 511q-24 49-68 82 32 23 73 23 53 0 90.5-37.5t37.5-91.5q0-15-5-32-55 51-128 56z" />
<glyph unicode="&#xe11c;" glyph-name="weather_rain" d="M809 488l23 3q44 0 75.5-31.5t31.5-75.5q0-38-24-68t-62-39h-597q-70 0-120.5 50t-50.5 121 50.5 121 120.5 50q27-2 46-8 10 48 44.5 83t81.5 47q23 5 41 5 58 0 104.5-36t60.5-94q4 1 8.5 1.5t10 1 8.5 0.5q56-1 98.5-38t49.5-93zM234 211h43q9 0 15-6.5t6-15.5v-85q0-9-6-15t-15-6h-43q-9 0-15 6t-6 15v85q0 9 6 15.5t15 6.5zM320 40h42q9 0 15.5-6t6.5-15v-86q0-8-6.5-14.5t-15.5-6.5h-42q-9 0-15.5 6.5t-6.5 14.5v86q0 9 6.5 15t15.5 6zM490 40h43q9 0 15-6t6-15v-86q0-8-6-14.5t-15-6.5h-43q-9 0-15 6.5t-6 14.5v86q0 9 6 15t15 6zM661 40h43q8 0 14.5-6t6.5-15v-86q0-8-6.5-14.5t-14.5-6.5h-43q-9 0-15 6.5t-6 14.5v86q0 9 6 15t15 6zM405 211h43q8 0 14.5-6.5t6.5-15.5v-85q0-9-6.5-15t-14.5-6h-43q-9 0-15 6t-6 15v85q0 9 6 15.5t15 6.5zM576 211h42q9 0 15.5-6.5t6.5-15.5v-85q0-9-6.5-15t-15.5-6h-42q-9 0-15.5 6t-6.5 15v85q0 9 6.5 15.5t15.5 6.5zM746 211h43q9 0 15-6.5t6-15.5v-85q0-9-6-15t-15-6h-43q-9 0-15 6t-6 15v85q0 9 6 15.5t15 6.5z" />
<glyph unicode="&#xe11d;" glyph-name="weather_heavy_rain" d="M829 491q44 0 75.5-31.5t31.5-75.5q0-38-24-68t-62-39h-597q-71 0-121 50t-50 121 50 121 121 50q21-1 46-8 10 49 44.5 84.5t82.5 46.5q23 5 40 5 59 0 105.5-36.5t60.5-94.5q5 1 15 2t11 1q56 0 98.5-37.5t49.5-93.5q1 0 23 3zM178 76q6 69 55 116 48-48 54-116 0-23-15.5-39t-38.5-16-39 16-16 39zM733 76q6 68 54 116 49-47 55-116 0-23-16-39t-39-16-38.5 16-15.5 39zM512 192q61-61 69-146 0-29-20.5-49t-48.5-20-48.5 20-20.5 49q8 85 69 146z" />
</font>
</defs>
</svg>
